<?xml version="1.0" encoding="UTF-8" standalone="no"?>
<!DOCTYPE svg PUBLIC "-//W3C//DTD SVG 1.1//EN"
 "http://www.w3.org/Graphics/SVG/1.1/DTD/svg11.dtd">
<!-- Generated by graphviz version 14.1.2 (20260124.0452)
 -->
<!-- Title: dependency&#45;cruiser output Pages: 1 -->
<svg width="590pt" height="234pt"
 viewBox="0.00 0.00 590.00 234.00" xmlns="http://www.w3.org/2000/svg" xmlns:xlink="http://www.w3.org/1999/xlink">
<g id="graph0" class="graph" transform="scale(1 1) rotate(0) translate(4 230)">
<title>dependency&#45;cruiser output</title>
<polygon fill="white" stroke="none" points="-4,4 -4,-230 585.75,-230 585.75,4 -4,4"/>
<g id="clust1" class="cluster">
<title>cluster_src</title>
<path fill="#ffffff" stroke="black" stroke-width="2" d="M20,-8C20,-8 561.75,-8 561.75,-8 567.75,-8 573.75,-14 573.75,-20 573.75,-20 573.75,-206 573.75,-206 573.75,-212 567.75,-218 561.75,-218 561.75,-218 20,-218 20,-218 14,-218 8,-212 8,-206 8,-206 8,-20 8,-20 8,-14 14,-8 20,-8"/>
<text xml:space="preserve" text-anchor="middle" x="290.88" y="-205.45" font-family="Helvetica,sans-Serif" font-weight="bold" font-size="9.00">src</text>
</g>
<g id="clust2" class="cluster">
<title>cluster_src/app</title>
<path fill="#ffffff" stroke="black" stroke-width="2" d="M90,-18C90,-18 204.5,-18 204.5,-18 210.5,-18 216.5,-24 216.5,-30 216.5,-30 216.5,-178 216.5,-178 216.5,-184 210.5,-190 204.5,-190 204.5,-190 90,-190 90,-190 84,-190 78,-184 78,-178 78,-178 78,-30 78,-30 78,-24 84,-18 90,-18"/>
<text xml:space="preserve" text-anchor="middle" x="147.25" y="-177.45" font-family="Helvetica,sans-Serif" font-weight="bold" font-size="9.00">app</text>
</g>
<g id="clust3" class="cluster">
<title>cluster_src/core</title>
<path fill="#ffffff" stroke="black" stroke-width="2" d="M236.5,-16C236.5,-16 553.75,-16 553.75,-16 559.75,-16 565.75,-22 565.75,-28 565.75,-28 565.75,-180 565.75,-180 565.75,-186 559.75,-192 553.75,-192 553.75,-192 236.5,-192 236.5,-192 230.5,-192 224.5,-186 224.5,-180 224.5,-180 224.5,-28 224.5,-28 224.5,-22 230.5,-16 236.5,-16"/>
<text xml:space="preserve" text-anchor="middle" x="395.12" y="-179.45" font-family="Helvetica,sans-Serif" font-weight="bold" font-size="9.00">core</text>
</g>
<g id="clust4" class="cluster">
<title>cluster_src/core/cataloging</title>
<path fill="#ffffff" stroke="black" stroke-width="2" d="M244.5,-24C244.5,-24 293.75,-24 293.75,-24 299.75,-24 305.75,-30 305.75,-36 305.75,-36 305.75,-154 305.75,-154 305.75,-160 299.75,-166 293.75,-166 293.75,-166 244.5,-166 244.5,-166 238.5,-166 232.5,-160 232.5,-154 232.5,-154 232.5,-36 232.5,-36 232.5,-30 238.5,-24 244.5,-24"/>
<text xml:space="preserve" text-anchor="middle" x="269.12" y="-153.45" font-family="Helvetica,sans-Serif" font-weight="bold" font-size="9.00">cataloging</text>
</g>
<g id="clust5" class="cluster">
<title>cluster_src/core/scheduling</title>
<path fill="#ffffff" stroke="black" stroke-width="2" d="M325.75,-24C325.75,-24 545.75,-24 545.75,-24 551.75,-24 557.75,-30 557.75,-36 557.75,-36 557.75,-154 557.75,-154 557.75,-160 551.75,-166 545.75,-166 545.75,-166 325.75,-166 325.75,-166 319.75,-166 313.75,-160 313.75,-154 313.75,-154 313.75,-36 313.75,-36 313.75,-30 319.75,-24 325.75,-24"/>
<text xml:space="preserve" text-anchor="middle" x="435.75" y="-153.45" font-family="Helvetica,sans-Serif" font-weight="bold" font-size="9.00">scheduling</text>
</g>
<!-- src/app/CLI.ts -->
<g id="node1" class="node">
<title>src/app/CLI.ts</title>
<g id="a_node1"><a xlink:href="src/app/CLI.ts" xlink:title="CLI.ts">
<path fill="#ddfeff" stroke="black" d="M168.33,-43.88C168.33,-43.88 126.17,-43.88 126.17,-43.88 123.21,-43.88 120.25,-40.92 120.25,-37.96 120.25,-37.96 120.25,-32.04 120.25,-32.04 120.25,-29.08 123.21,-26.12 126.17,-26.12 126.17,-26.12 168.33,-26.12 168.33,-26.12 171.29,-26.12 174.25,-29.08 174.25,-32.04 174.25,-32.04 174.25,-37.96 174.25,-37.96 174.25,-40.92 171.29,-43.88 168.33,-43.88"/>
<text xml:space="preserve" text-anchor="start" x="135.62" y="-31.32" font-family="Helvetica,sans-Serif" font-size="9.00">CLI.ts</text>
</a>
</g>
</g>
<!-- src/app/Config.ts -->
<g id="node2" class="node">
<title>src/app/Config.ts</title>
<g id="a_node2"><a xlink:href="src/app/Config.ts" xlink:title="Config.ts">
<path fill="#ccffcc" stroke="black" d="M168.33,-73.88C168.33,-73.88 126.17,-73.88 126.17,-73.88 123.21,-73.88 120.25,-70.92 120.25,-67.96 120.25,-67.96 120.25,-62.04 120.25,-62.04 120.25,-59.08 123.21,-56.12 126.17,-56.12 126.17,-56.12 168.33,-56.12 168.33,-56.12 171.29,-56.12 174.25,-59.08 174.25,-62.04 174.25,-62.04 174.25,-67.96 174.25,-67.96 174.25,-70.92 171.29,-73.88 168.33,-73.88"/>
<text xml:space="preserve" text-anchor="start" x="129.25" y="-61.33" font-family="Helvetica,sans-Serif" font-size="9.00">Config.ts</text>
</a>
</g>
</g>
<!-- src/app/FileSystemCatalog.ts -->
<g id="node3" class="node">
<title>src/app/FileSystemCatalog.ts</title>
<g id="a_node3"><a xlink:href="src/app/FileSystemCatalog.ts" xlink:title="FileSystemCatalog.ts">
<path fill="#ddfeff" stroke="black" d="M192.46,-103.88C192.46,-103.88 102.04,-103.88 102.04,-103.88 99.08,-103.88 96.12,-100.92 96.12,-97.96 96.12,-97.96 96.12,-92.04 96.12,-92.04 96.12,-89.08 99.08,-86.12 102.04,-86.12 102.04,-86.12 192.46,-86.12 192.46,-86.12 195.42,-86.12 198.38,-89.08 198.38,-92.04 198.38,-92.04 198.38,-97.96 198.38,-97.96 198.38,-100.92 195.42,-103.88 192.46,-103.88"/>
<text xml:space="preserve" text-anchor="start" x="104.12" y="-91.33" font-family="Helvetica,sans-Serif" font-size="9.00">FileSystemCatalog.ts</text>
</a>
</g>
</g>
<!-- src/core/cataloging/Card.ts -->
<g id="node4" class="node">
<title>src/core/cataloging/Card.ts</title>
<g id="a_node4"><a xlink:href="src/core/cataloging/Card.ts" xlink:title="Card.ts">
<path fill="#ddfeff" stroke="black" d="M290.21,-49.88C290.21,-49.88 248.04,-49.88 248.04,-49.88 245.08,-49.88 242.12,-46.92 242.12,-43.96 242.12,-43.96 242.12,-38.04 242.12,-38.04 242.12,-35.08 245.08,-32.12 248.04,-32.12 248.04,-32.12 290.21,-32.12 290.21,-32.12 293.17,-32.12 296.12,-35.08 296.12,-38.04 296.12,-38.04 296.12,-43.96 296.12,-43.96 296.12,-46.92 293.17,-49.88 290.21,-49.88"/>
<text xml:space="preserve" text-anchor="start" x="254.5" y="-37.33" font-family="Helvetica,sans-Serif" font-size="9.00">Card.ts</text>
</a>
</g>
</g>
<!-- src/app/FileSystemCatalog.ts&#45;&gt;src/core/cataloging/Card.ts -->
<g id="edge1" class="edge">
<title>src/app/FileSystemCatalog.ts&#45;&gt;src/core/cataloging/Card.ts</title>
<path fill="none" stroke="#000000" stroke-width="2" stroke-opacity="0.200000" d="M198.54,-90.28C205.12,-87.93 211.36,-84.63 216.5,-80 224.86,-72.48 216.59,-63.99 224.5,-56 227.16,-53.31 230.33,-51.1 233.72,-49.29"/>
<polygon fill="#000000" fill-opacity="0.200000" stroke="#000000" stroke-width="2" stroke-opacity="0.200000" points="234.47,-51.26 239.14,-46.95 232.8,-47.4 234.47,-51.26"/>
</g>
<!-- src/core/cataloging/Deck.ts -->
<g id="node5" class="node">
<title>src/core/cataloging/Deck.ts</title>
<g id="a_node5"><a xlink:href="src/core/cataloging/Deck.ts" xlink:title="Deck.ts">
<path fill="#ddfeff" stroke="black" d="M290.21,-79.88C290.21,-79.88 248.04,-79.88 248.04,-79.88 245.08,-79.88 242.12,-76.92 242.12,-73.96 242.12,-73.96 242.12,-68.04 242.12,-68.04 242.12,-65.08 245.08,-62.12 248.04,-62.12 248.04,-62.12 290.21,-62.12 290.21,-62.12 293.17,-62.12 296.12,-65.08 296.12,-68.04 296.12,-68.04 296.12,-73.96 296.12,-73.96 296.12,-76.92 293.17,-79.88 290.21,-79.88"/>
<text xml:space="preserve" text-anchor="start" x="254.12" y="-67.33" font-family="Helvetica,sans-Serif" font-size="9.00">Deck.ts</text>
</a>
</g>
</g>
<!-- src/app/FileSystemCatalog.ts&#45;&gt;src/core/cataloging/Deck.ts -->
<g id="edge2" class="edge">
<title>src/app/FileSystemCatalog.ts&#45;&gt;src/core/cataloging/Deck.ts</title>
<path fill="none" stroke="#000000" stroke-width="2" stroke-opacity="0.200000" d="M194.94,-85.65C207.62,-83.11 221.13,-80.41 233.04,-78.02"/>
<polygon fill="#000000" fill-opacity="0.200000" stroke="#000000" stroke-width="2" stroke-opacity="0.200000" points="233.37,-80.1 238.84,-76.86 232.54,-75.98 233.37,-80.1"/>
</g>
<!-- src/core/cataloging/Topic.ts -->
<g id="node6" class="node">
<title>src/core/cataloging/Topic.ts</title>
<g id="a_node6"><a xlink:href="src/core/cataloging/Topic.ts" xlink:title="Topic.ts">
<path fill="#ddfeff" stroke="black" d="M290.21,-109.88C290.21,-109.88 248.04,-109.88 248.04,-109.88 245.08,-109.88 242.12,-106.92 242.12,-103.96 242.12,-103.96 242.12,-98.04 242.12,-98.04 242.12,-95.08 245.08,-92.12 248.04,-92.12 248.04,-92.12 290.21,-92.12 290.21,-92.12 293.17,-92.12 296.12,-95.08 296.12,-98.04 296.12,-98.04 296.12,-103.96 296.12,-103.96 296.12,-106.92 293.17,-109.88 290.21,-109.88"/>
<text xml:space="preserve" text-anchor="start" x="253.75" y="-97.33" font-family="Helvetica,sans-Serif" font-size="9.00">Topic.ts</text>
</a>
</g>
</g>
<!-- src/app/FileSystemCatalog.ts&#45;&gt;src/core/cataloging/Topic.ts -->
<g id="edge3" class="edge">
<title>src/app/FileSystemCatalog.ts&#45;&gt;src/core/cataloging/Topic.ts</title>
<path fill="none" stroke="#000000" stroke-width="2" stroke-opacity="0.200000" d="M198.74,-97.53C210.34,-98.11 222.42,-98.71 233.19,-99.25"/>
<polygon fill="#000000" fill-opacity="0.200000" stroke="#000000" stroke-width="2" stroke-opacity="0.200000" points="232.77,-101.33 238.86,-99.54 232.98,-97.14 232.77,-101.33"/>
</g>
<!-- src/core/scheduling/Schedule.ts -->
<g id="node8" class="node">
<title>src/core/scheduling/Schedule.ts</title>
<g id="a_node8"><a xlink:href="src/core/scheduling/Schedule.ts" xlink:title="Schedule.ts">
<path fill="#ddfeff" stroke="black" d="M395.21,-79.88C395.21,-79.88 343.04,-79.88 343.04,-79.88 340.08,-79.88 337.12,-76.92 337.12,-73.96 337.12,-73.96 337.12,-68.04 337.12,-68.04 337.12,-65.08 340.08,-62.12 343.04,-62.12 343.04,-62.12 395.21,-62.12 395.21,-62.12 398.17,-62.12 401.12,-65.08 401.12,-68.04 401.12,-68.04 401.12,-73.96 401.12,-73.96 401.12,-76.92 398.17,-79.88 395.21,-79.88"/>
<text xml:space="preserve" text-anchor="start" x="345.12" y="-67.33" font-family="Helvetica,sans-Serif" font-size="9.00">Schedule.ts</text>
</a>
</g>
</g>
<!-- src/core/cataloging/Card.ts&#45;&gt;src/core/scheduling/Schedule.ts -->
<g id="edge5" class="edge">
<title>src/core/cataloging/Card.ts&#45;&gt;src/core/scheduling/Schedule.ts</title>
<path fill="none" stroke="#000000" stroke-width="2" stroke-opacity="0.200000" d="M296.39,-49.04C306.41,-52.11 318.06,-55.67 329.02,-59.03"/>
<polygon fill="#000000" fill-opacity="0.200000" stroke="#000000" stroke-width="2" stroke-opacity="0.200000" points="328.37,-61.03 334.73,-60.78 329.6,-57.01 328.37,-61.03"/>
</g>
<!-- src/app/SQLiteScheduleTracker.ts -->
<g id="node7" class="node">
<title>src/app/SQLiteScheduleTracker.ts</title>
<g id="a_node7"><a xlink:href="src/app/SQLiteScheduleTracker.ts" xlink:title="SQLiteScheduleTracker.ts">
<path fill="#ddfeff" stroke="black" d="M202.58,-133.88C202.58,-133.88 91.92,-133.88 91.92,-133.88 88.96,-133.88 86,-130.92 86,-127.96 86,-127.96 86,-122.04 86,-122.04 86,-119.08 88.96,-116.12 91.92,-116.12 91.92,-116.12 202.58,-116.12 202.58,-116.12 205.54,-116.12 208.5,-119.08 208.5,-122.04 208.5,-122.04 208.5,-127.96 208.5,-127.96 208.5,-130.92 205.54,-133.88 202.58,-133.88"/>
<text xml:space="preserve" text-anchor="start" x="94" y="-121.33" font-family="Helvetica,sans-Serif" font-size="9.00">SQLiteScheduleTracker.ts</text>
</a>
</g>
</g>
<!-- src/app/SQLiteScheduleTracker.ts&#45;&gt;src/core/scheduling/Schedule.ts -->
<g id="edge4" class="edge">
<title>src/app/SQLiteScheduleTracker.ts&#45;&gt;src/core/scheduling/Schedule.ts</title>
<path fill="none" stroke="#000000" stroke-width="2" stroke-opacity="0.200000" d="M208.99,-134.31C211.68,-135.94 214.21,-137.83 216.5,-140 226.2,-149.2 213.86,-160.9 224.5,-169 253.23,-190.88 279.02,-193.28 305.75,-169 319.47,-156.54 301.83,-100.19 313.75,-86 317.64,-81.37 322.83,-78.1 328.45,-75.8"/>
<polygon fill="#000000" fill-opacity="0.200000" stroke="#000000" stroke-width="2" stroke-opacity="0.200000" points="328.95,-77.84 334.02,-74.01 327.67,-73.85 328.95,-77.84"/>
</g>
<!-- src/core/scheduling/ConsecutiveSuccesses.ts -->
<g id="node11" class="node">
<title>src/core/scheduling/ConsecutiveSuccesses.ts</title>
<g id="a_node11"><a xlink:href="src/core/scheduling/ConsecutiveSuccesses.ts" xlink:title="ConsecutiveSuccesses.ts">
<path fill="#ddfeff" stroke="black" d="M543.83,-49.88C543.83,-49.88 435.42,-49.88 435.42,-49.88 432.46,-49.88 429.5,-46.92 429.5,-43.96 429.5,-43.96 429.5,-38.04 429.5,-38.04 429.5,-35.08 432.46,-32.12 435.42,-32.12 435.42,-32.12 543.83,-32.12 543.83,-32.12 546.79,-32.12 549.75,-35.08 549.75,-38.04 549.75,-38.04 549.75,-43.96 549.75,-43.96 549.75,-46.92 546.79,-49.88 543.83,-49.88"/>
<text xml:space="preserve" text-anchor="start" x="437.5" y="-37.33" font-family="Helvetica,sans-Serif" font-size="9.00">ConsecutiveSuccesses.ts</text>
</a>
</g>
</g>
<!-- src/core/scheduling/Schedule.ts&#45;&gt;src/core/scheduling/ConsecutiveSuccesses.ts -->
<g id="edge6" class="edge">
<title>src/core/scheduling/Schedule.ts&#45;&gt;src/core/scheduling/ConsecutiveSuccesses.ts</title>
<path fill="none" stroke="#000000" stroke-width="2" stroke-opacity="0.200000" d="M401.57,-63.04C414.4,-59.79 429.49,-55.97 443.46,-52.43"/>
<polygon fill="#000000" fill-opacity="0.200000" stroke="#000000" stroke-width="2" stroke-opacity="0.200000" points="443.75,-54.53 449.05,-51.02 442.72,-50.46 443.75,-54.53"/>
</g>
<!-- src/core/scheduling/DateReviewed.ts -->
<g id="node12" class="node">
<title>src/core/scheduling/DateReviewed.ts</title>
<g id="a_node12"><a xlink:href="src/core/scheduling/DateReviewed.ts" xlink:title="DateReviewed.ts">
<path fill="#ddfeff" stroke="black" d="M526.58,-79.88C526.58,-79.88 452.67,-79.88 452.67,-79.88 449.71,-79.88 446.75,-76.92 446.75,-73.96 446.75,-73.96 446.75,-68.04 446.75,-68.04 446.75,-65.08 449.71,-62.12 452.67,-62.12 452.67,-62.12 526.58,-62.12 526.58,-62.12 529.54,-62.12 532.5,-65.08 532.5,-68.04 532.5,-68.04 532.5,-73.96 532.5,-73.96 532.5,-76.92 529.54,-79.88 526.58,-79.88"/>
<text xml:space="preserve" text-anchor="start" x="454.75" y="-67.33" font-family="Helvetica,sans-Serif" font-size="9.00">DateReviewed.ts</text>
</a>
</g>
</g>
<!-- src/core/scheduling/Schedule.ts&#45;&gt;src/core/scheduling/DateReviewed.ts -->
<g id="edge7" class="edge">
<title>src/core/scheduling/Schedule.ts&#45;&gt;src/core/scheduling/DateReviewed.ts</title>
<path fill="none" stroke="#000000" stroke-width="2" stroke-opacity="0.200000" d="M401.57,-71C412.6,-71 425.3,-71 437.53,-71"/>
<polygon fill="#000000" fill-opacity="0.200000" stroke="#000000" stroke-width="2" stroke-opacity="0.200000" points="437.29,-73.1 443.29,-71 437.29,-68.9 437.29,-73.1"/>
</g>
<!-- src/core/scheduling/MemoryStrength.ts -->
<g id="node14" class="node">
<title>src/core/scheduling/MemoryStrength.ts</title>
<g id="a_node14"><a xlink:href="src/core/scheduling/MemoryStrength.ts" xlink:title="MemoryStrength.ts">
<path fill="#ddfeff" stroke="black" d="M529.96,-109.88C529.96,-109.88 449.29,-109.88 449.29,-109.88 446.33,-109.88 443.38,-106.92 443.38,-103.96 443.38,-103.96 443.38,-98.04 443.38,-98.04 443.38,-95.08 446.33,-92.12 449.29,-92.12 449.29,-92.12 529.96,-92.12 529.96,-92.12 532.92,-92.12 535.88,-95.08 535.88,-98.04 535.88,-98.04 535.88,-103.96 535.88,-103.96 535.88,-106.92 532.92,-109.88 529.96,-109.88"/>
<text xml:space="preserve" text-anchor="start" x="451.38" y="-97.33" font-family="Helvetica,sans-Serif" font-size="9.00">MemoryStrength.ts</text>
</a>
</g>
</g>
<!-- src/core/scheduling/Schedule.ts&#45;&gt;src/core/scheduling/MemoryStrength.ts -->
<g id="edge8" class="edge">
<title>src/core/scheduling/Schedule.ts&#45;&gt;src/core/scheduling/MemoryStrength.ts</title>
<path fill="none" stroke="#000000" stroke-width="2" stroke-opacity="0.200000" d="M401.57,-78.96C414.4,-82.21 429.49,-86.03 443.46,-89.57"/>
<polygon fill="#000000" fill-opacity="0.200000" stroke="#000000" stroke-width="2" stroke-opacity="0.200000" points="442.72,-91.54 449.05,-90.98 443.75,-87.47 442.72,-91.54"/>
</g>
<!-- src/core/scheduling/ReviewInterval.ts -->
<g id="node15" class="node">
<title>src/core/scheduling/ReviewInterval.ts</title>
<g id="a_node15"><a xlink:href="src/core/scheduling/ReviewInterval.ts" xlink:title="ReviewInterval.ts">
<path fill="#ddfeff" stroke="black" d="M526.58,-139.88C526.58,-139.88 452.67,-139.88 452.67,-139.88 449.71,-139.88 446.75,-136.92 446.75,-133.96 446.75,-133.96 446.75,-128.04 446.75,-128.04 446.75,-125.08 449.71,-122.12 452.67,-122.12 452.67,-122.12 526.58,-122.12 526.58,-122.12 529.54,-122.12 532.5,-125.08 532.5,-128.04 532.5,-128.04 532.5,-133.96 532.5,-133.96 532.5,-136.92 529.54,-139.88 526.58,-139.88"/>
<text xml:space="preserve" text-anchor="start" x="454.75" y="-127.33" font-family="Helvetica,sans-Serif" font-size="9.00">ReviewInterval.ts</text>
</a>
</g>
</g>
<!-- src/core/scheduling/Schedule.ts&#45;&gt;src/core/scheduling/ReviewInterval.ts -->
<g id="edge9" class="edge">
<title>src/core/scheduling/Schedule.ts&#45;&gt;src/core/scheduling/ReviewInterval.ts</title>
<path fill="none" stroke="#000000" stroke-width="2" stroke-opacity="0.200000" d="M401.53,-77.13C406.97,-79.26 412.24,-82.13 416.5,-86 427.26,-95.77 418.43,-106.58 429.5,-116 432.19,-118.29 435.18,-120.24 438.35,-121.89"/>
<polygon fill="#000000" fill-opacity="0.200000" stroke="#000000" stroke-width="2" stroke-opacity="0.200000" points="437.42,-123.78 443.76,-124.23 439.09,-119.92 437.42,-123.78"/>
</g>
<!-- src/app/TextRenderer.ts -->
<g id="node9" class="node">
<title>src/app/TextRenderer.ts</title>
<g id="a_node9"><a xlink:href="src/app/TextRenderer.ts" xlink:title="TextRenderer.ts">
<path fill="#ccffcc" stroke="black" d="M181.58,-163.88C181.58,-163.88 112.92,-163.88 112.92,-163.88 109.96,-163.88 107,-160.92 107,-157.96 107,-157.96 107,-152.04 107,-152.04 107,-149.08 109.96,-146.12 112.92,-146.12 112.92,-146.12 181.58,-146.12 181.58,-146.12 184.54,-146.12 187.5,-149.08 187.5,-152.04 187.5,-152.04 187.5,-157.96 187.5,-157.96 187.5,-160.92 184.54,-163.88 181.58,-163.88"/>
<text xml:space="preserve" text-anchor="start" x="115" y="-151.32" font-family="Helvetica,sans-Serif" font-size="9.00">TextRenderer.ts</text>
</a>
</g>
</g>
<!-- src/core/cataloging/Catalog.ts -->
<g id="node10" class="node">
<title>src/core/cataloging/Catalog.ts</title>
<g id="a_node10"><a xlink:href="src/core/cataloging/Catalog.ts" xlink:title="Catalog.ts">
<path fill="#ccffcc" stroke="black" d="M291.83,-139.88C291.83,-139.88 246.42,-139.88 246.42,-139.88 243.46,-139.88 240.5,-136.92 240.5,-133.96 240.5,-133.96 240.5,-128.04 240.5,-128.04 240.5,-125.08 243.46,-122.12 246.42,-122.12 246.42,-122.12 291.83,-122.12 291.83,-122.12 294.79,-122.12 297.75,-125.08 297.75,-128.04 297.75,-128.04 297.75,-133.96 297.75,-133.96 297.75,-136.92 294.79,-139.88 291.83,-139.88"/>
<text xml:space="preserve" text-anchor="start" x="248.5" y="-127.33" font-family="Helvetica,sans-Serif" font-size="9.00">Catalog.ts</text>
</a>
</g>
</g>
<!-- src/core/scheduling/Grade.ts -->
<g id="node13" class="node">
<title>src/core/scheduling/Grade.ts</title>
<g id="a_node13"><a xlink:href="src/core/scheduling/Grade.ts" xlink:title="Grade.ts">
<path fill="#ccffcc" stroke="black" d="M390.21,-109.88C390.21,-109.88 348.04,-109.88 348.04,-109.88 345.08,-109.88 342.12,-106.92 342.12,-103.96 342.12,-103.96 342.12,-98.04 342.12,-98.04 342.12,-95.08 345.08,-92.12 348.04,-92.12 348.04,-92.12 390.21,-92.12 390.21,-92.12 393.17,-92.12 396.12,-95.08 396.12,-98.04 396.12,-98.04 396.12,-103.96 396.12,-103.96 396.12,-106.92 393.17,-109.88 390.21,-109.88"/>
<text xml:space="preserve" text-anchor="start" x="351.88" y="-97.33" font-family="Helvetica,sans-Serif" font-size="9.00">Grade.ts</text>
</a>
</g>
</g>
<!-- src/core/scheduling/ScheduleTracker.ts -->
<g id="node16" class="node">
<title>src/core/scheduling/ScheduleTracker.ts</title>
<g id="a_node16"><a xlink:href="src/core/scheduling/ScheduleTracker.ts" xlink:title="ScheduleTracker.ts">
<path fill="#ccffcc" stroke="black" d="M410.58,-139.88C410.58,-139.88 327.67,-139.88 327.67,-139.88 324.71,-139.88 321.75,-136.92 321.75,-133.96 321.75,-133.96 321.75,-128.04 321.75,-128.04 321.75,-125.08 324.71,-122.12 327.67,-122.12 327.67,-122.12 410.58,-122.12 410.58,-122.12 413.54,-122.12 416.5,-125.08 416.5,-128.04 416.5,-128.04 416.5,-133.96 416.5,-133.96 416.5,-136.92 413.54,-139.88 410.58,-139.88"/>
<text xml:space="preserve" text-anchor="start" x="329.75" y="-127.33" font-family="Helvetica,sans-Serif" font-size="9.00">ScheduleTracker.ts</text>
</a>
</g>
</g>
<!-- src/reps.ts -->
<g id="node17" class="node">
<title>src/reps.ts</title>
<g id="a_node17"><a xlink:href="src/reps.ts" xlink:title="reps.ts">
<path fill="#ddfeff" stroke="black" d="M64.08,-43.88C64.08,-43.88 21.92,-43.88 21.92,-43.88 18.96,-43.88 16,-40.92 16,-37.96 16,-37.96 16,-32.04 16,-32.04 16,-29.08 18.96,-26.12 21.92,-26.12 21.92,-26.12 64.08,-26.12 64.08,-26.12 67.04,-26.12 70,-29.08 70,-32.04 70,-32.04 70,-37.96 70,-37.96 70,-40.92 67.04,-43.88 64.08,-43.88"/>
<text xml:space="preserve" text-anchor="start" x="29.5" y="-31.32" font-family="Helvetica,sans-Serif" font-size="9.00">reps.ts</text>
</a>
</g>
</g>
<!-- src/reps.ts&#45;&gt;src/app/CLI.ts -->
<g id="edge10" class="edge">
<title>src/reps.ts&#45;&gt;src/app/CLI.ts</title>
<path fill="none" stroke="#000000" stroke-width="2" stroke-opacity="0.200000" d="M70.33,-35C82.74,-35 97.71,-35 111.07,-35"/>
<polygon fill="#000000" fill-opacity="0.200000" stroke="#000000" stroke-width="2" stroke-opacity="0.200000" points="110.98,-37.1 116.98,-35 110.98,-32.9 110.98,-37.1"/>
</g>
</g>
</svg>
