<?xml version="1.0" encoding="UTF-8" standalone="no"?>
<!DOCTYPE svg PUBLIC "-//W3C//DTD SVG 1.1//EN"
 "http://www.w3.org/Graphics/SVG/1.1/DTD/svg11.dtd">
<!-- Generated by graphviz version 14.1.2 (20260124.0452)
 -->
<!-- Title: dependency&#45;cruiser output Pages: 1 -->
<svg width="694pt" height="564pt"
 viewBox="0.00 0.00 694.00 564.00" xmlns="http://www.w3.org/2000/svg" xmlns:xlink="http://www.w3.org/1999/xlink">
<g id="graph0" class="graph" transform="scale(1 1) rotate(0) translate(4 560)">
<title>dependency&#45;cruiser output</title>
<polygon fill="white" stroke="none" points="-4,4 -4,-560 689.62,-560 689.62,4 -4,4"/>
<g id="clust1" class="cluster">
<title>cluster_src</title>
<path fill="#ffffff" stroke="black" stroke-width="2" d="M20,-8C20,-8 665.62,-8 665.62,-8 671.62,-8 677.62,-14 677.62,-20 677.62,-20 677.62,-536 677.62,-536 677.62,-542 671.62,-548 665.62,-548 665.62,-548 20,-548 20,-548 14,-548 8,-542 8,-536 8,-536 8,-20 8,-20 8,-14 14,-8 20,-8"/>
<text xml:space="preserve" text-anchor="middle" x="342.81" y="-535.45" font-family="Helvetica,sans-Serif" font-weight="bold" font-size="9.00">src</text>
</g>
<g id="clust2" class="cluster">
<title>cluster_src/app</title>
<path fill="#ffffff" stroke="black" stroke-width="2" d="M166.25,-16C166.25,-16 397.62,-16 397.62,-16 403.62,-16 409.62,-22 409.62,-28 409.62,-28 409.62,-326 409.62,-326 409.62,-332 403.62,-338 397.62,-338 397.62,-338 166.25,-338 166.25,-338 160.25,-338 154.25,-332 154.25,-326 154.25,-326 154.25,-28 154.25,-28 154.25,-22 160.25,-16 166.25,-16"/>
<text xml:space="preserve" text-anchor="middle" x="281.94" y="-325.45" font-family="Helvetica,sans-Serif" font-weight="bold" font-size="9.00">app</text>
</g>
<g id="clust3" class="cluster">
<title>cluster_src/app/cli</title>
<path fill="#ffffff" stroke="black" stroke-width="2" d="M178.38,-24C178.38,-24 389.62,-24 389.62,-24 395.62,-24 401.62,-30 401.62,-36 401.62,-36 401.62,-64 401.62,-64 401.62,-70 395.62,-76 389.62,-76 389.62,-76 178.38,-76 178.38,-76 172.38,-76 166.38,-70 166.38,-64 166.38,-64 166.38,-36 166.38,-36 166.38,-30 172.38,-24 178.38,-24"/>
<text xml:space="preserve" text-anchor="middle" x="284" y="-63.45" font-family="Helvetica,sans-Serif" font-weight="bold" font-size="9.00">cli</text>
</g>
<g id="clust4" class="cluster">
<title>cluster_src/app/persistence</title>
<path fill="#ffffff" stroke="black" stroke-width="2" d="M174.25,-84C174.25,-84 288.75,-84 288.75,-84 294.75,-84 300.75,-90 300.75,-96 300.75,-96 300.75,-184 300.75,-184 300.75,-190 294.75,-196 288.75,-196 288.75,-196 174.25,-196 174.25,-196 168.25,-196 162.25,-190 162.25,-184 162.25,-184 162.25,-96 162.25,-96 162.25,-90 168.25,-84 174.25,-84"/>
<text xml:space="preserve" text-anchor="middle" x="231.5" y="-183.45" font-family="Helvetica,sans-Serif" font-weight="bold" font-size="9.00">persistence</text>
</g>
<g id="clust5" class="cluster">
<title>cluster_src/core</title>
<path fill="#ffffff" stroke="black" stroke-width="2" d="M320.75,-346C320.75,-346 657.62,-346 657.62,-346 663.62,-346 669.62,-352 669.62,-358 669.62,-358 669.62,-510 669.62,-510 669.62,-516 663.62,-522 657.62,-522 657.62,-522 320.75,-522 320.75,-522 314.75,-522 308.75,-516 308.75,-510 308.75,-510 308.75,-358 308.75,-358 308.75,-352 314.75,-346 320.75,-346"/>
<text xml:space="preserve" text-anchor="middle" x="489.19" y="-509.45" font-family="Helvetica,sans-Serif" font-weight="bold" font-size="9.00">core</text>
</g>
<g id="clust6" class="cluster">
<title>cluster_src/core/cataloging</title>
<path fill="#ffffff" stroke="black" stroke-width="2" d="M328.75,-354C328.75,-354 378,-354 378,-354 384,-354 390,-360 390,-366 390,-366 390,-484 390,-484 390,-490 384,-496 378,-496 378,-496 328.75,-496 328.75,-496 322.75,-496 316.75,-490 316.75,-484 316.75,-484 316.75,-366 316.75,-366 316.75,-360 322.75,-354 328.75,-354"/>
<text xml:space="preserve" text-anchor="middle" x="353.38" y="-483.45" font-family="Helvetica,sans-Serif" font-weight="bold" font-size="9.00">cataloging</text>
</g>
<g id="clust7" class="cluster">
<title>cluster_src/core/scheduling</title>
<path fill="#ffffff" stroke="black" stroke-width="2" d="M429.62,-354C429.62,-354 649.62,-354 649.62,-354 655.62,-354 661.62,-360 661.62,-366 661.62,-366 661.62,-484 661.62,-484 661.62,-490 655.62,-496 649.62,-496 649.62,-496 429.62,-496 429.62,-496 423.62,-496 417.62,-490 417.62,-484 417.62,-484 417.62,-366 417.62,-366 417.62,-360 423.62,-354 429.62,-354"/>
<text xml:space="preserve" text-anchor="middle" x="539.62" y="-483.45" font-family="Helvetica,sans-Serif" font-weight="bold" font-size="9.00">scheduling</text>
</g>
<!-- src/app/Closable.ts -->
<g id="node1" class="node">
<title>src/app/Closable.ts</title>
<g id="a_node1"><a xlink:href="src/app/Closable.ts" xlink:title="Closable.ts">
<path fill="#ccffcc" stroke="black" d="M256.46,-221.88C256.46,-221.88 206.54,-221.88 206.54,-221.88 203.58,-221.88 200.62,-218.92 200.62,-215.96 200.62,-215.96 200.62,-210.04 200.62,-210.04 200.62,-207.08 203.58,-204.12 206.54,-204.12 206.54,-204.12 256.46,-204.12 256.46,-204.12 259.42,-204.12 262.38,-207.08 262.38,-210.04 262.38,-210.04 262.38,-215.96 262.38,-215.96 262.38,-218.92 259.42,-221.88 256.46,-221.88"/>
<text xml:space="preserve" text-anchor="start" x="208.62" y="-209.32" font-family="Helvetica,sans-Serif" font-size="9.00">Closable.ts</text>
</a>
</g>
</g>
<!-- src/app/Config.ts -->
<g id="node2" class="node">
<title>src/app/Config.ts</title>
<g id="a_node2"><a xlink:href="src/app/Config.ts" xlink:title="Config.ts">
<path fill="#ccffcc" stroke="black" d="M252.58,-251.88C252.58,-251.88 210.42,-251.88 210.42,-251.88 207.46,-251.88 204.5,-248.92 204.5,-245.96 204.5,-245.96 204.5,-240.04 204.5,-240.04 204.5,-237.08 207.46,-234.12 210.42,-234.12 210.42,-234.12 252.58,-234.12 252.58,-234.12 255.54,-234.12 258.5,-237.08 258.5,-240.04 258.5,-240.04 258.5,-245.96 258.5,-245.96 258.5,-248.92 255.54,-251.88 252.58,-251.88"/>
<text xml:space="preserve" text-anchor="start" x="213.5" y="-239.32" font-family="Helvetica,sans-Serif" font-size="9.00">Config.ts</text>
</a>
</g>
</g>
<!-- src/app/Reps.ts -->
<g id="node3" class="node">
<title>src/app/Reps.ts</title>
<g id="a_node3"><a xlink:href="src/app/Reps.ts" xlink:title="Reps.ts">
<path fill="#ddfeff" stroke="black" d="M252.58,-281.88C252.58,-281.88 210.42,-281.88 210.42,-281.88 207.46,-281.88 204.5,-278.92 204.5,-275.96 204.5,-275.96 204.5,-270.04 204.5,-270.04 204.5,-267.08 207.46,-264.12 210.42,-264.12 210.42,-264.12 252.58,-264.12 252.58,-264.12 255.54,-264.12 258.5,-267.08 258.5,-270.04 258.5,-270.04 258.5,-275.96 258.5,-275.96 258.5,-278.92 255.54,-281.88 252.58,-281.88"/>
<text xml:space="preserve" text-anchor="start" x="216.12" y="-269.32" font-family="Helvetica,sans-Serif" font-size="9.00">Reps.ts</text>
</a>
</g>
</g>
<!-- src/app/UserInterface.ts -->
<g id="node4" class="node">
<title>src/app/UserInterface.ts</title>
<g id="a_node4"><a xlink:href="src/app/UserInterface.ts" xlink:title="UserInterface.ts">
<path fill="#ccffcc" stroke="black" d="M265.46,-311.88C265.46,-311.88 197.54,-311.88 197.54,-311.88 194.58,-311.88 191.62,-308.92 191.62,-305.96 191.62,-305.96 191.62,-300.04 191.62,-300.04 191.62,-297.08 194.58,-294.12 197.54,-294.12 197.54,-294.12 265.46,-294.12 265.46,-294.12 268.42,-294.12 271.38,-297.08 271.38,-300.04 271.38,-300.04 271.38,-305.96 271.38,-305.96 271.38,-308.92 268.42,-311.88 265.46,-311.88"/>
<text xml:space="preserve" text-anchor="start" x="199.62" y="-299.32" font-family="Helvetica,sans-Serif" font-size="9.00">UserInterface.ts</text>
</a>
</g>
</g>
<!-- src/app/cli/ConsoleUserInterface.ts -->
<g id="node5" class="node">
<title>src/app/cli/ConsoleUserInterface.ts</title>
<g id="a_node5"><a xlink:href="src/app/cli/ConsoleUserInterface.ts" xlink:title="ConsoleUserInterface.ts">
<path fill="#ddfeff" stroke="black" d="M282.71,-49.88C282.71,-49.88 180.29,-49.88 180.29,-49.88 177.33,-49.88 174.38,-46.92 174.38,-43.96 174.38,-43.96 174.38,-38.04 174.38,-38.04 174.38,-35.08 177.33,-32.12 180.29,-32.12 180.29,-32.12 282.71,-32.12 282.71,-32.12 285.67,-32.12 288.62,-35.08 288.62,-38.04 288.62,-38.04 288.62,-43.96 288.62,-43.96 288.62,-46.92 285.67,-49.88 282.71,-49.88"/>
<text xml:space="preserve" text-anchor="start" x="182.38" y="-37.33" font-family="Helvetica,sans-Serif" font-size="9.00">ConsoleUserInterface.ts</text>
</a>
</g>
</g>
<!-- src/core/scheduling/Grade.ts -->
<g id="node6" class="node">
<title>src/core/scheduling/Grade.ts</title>
<g id="a_node6"><a xlink:href="src/core/scheduling/Grade.ts" xlink:title="Grade.ts">
<path fill="#ddfeff" stroke="black" d="M494.08,-379.88C494.08,-379.88 451.92,-379.88 451.92,-379.88 448.96,-379.88 446,-376.92 446,-373.96 446,-373.96 446,-368.04 446,-368.04 446,-365.08 448.96,-362.12 451.92,-362.12 451.92,-362.12 494.08,-362.12 494.08,-362.12 497.04,-362.12 500,-365.08 500,-368.04 500,-368.04 500,-373.96 500,-373.96 500,-376.92 497.04,-379.88 494.08,-379.88"/>
<text xml:space="preserve" text-anchor="start" x="455.75" y="-367.32" font-family="Helvetica,sans-Serif" font-size="9.00">Grade.ts</text>
</a>
</g>
</g>
<!-- src/app/cli/ConsoleUserInterface.ts&#45;&gt;src/core/scheduling/Grade.ts -->
<g id="edge1" class="edge">
<title>src/app/cli/ConsoleUserInterface.ts&#45;&gt;src/core/scheduling/Grade.ts</title>
<path fill="none" stroke="#000000" stroke-width="2" stroke-opacity="0.200000" d="M254.39,-50.28C268.81,-57.2 287.42,-67.72 300.75,-81 387.12,-167.09 446.42,-305.38 465.43,-353.68"/>
<polygon fill="#000000" fill-opacity="0.200000" stroke="#000000" stroke-width="2" stroke-opacity="0.200000" points="463.38,-354.2 467.51,-359.04 467.3,-352.69 463.38,-354.2"/>
</g>
<!-- src/app/cli/TextRenderer.ts -->
<g id="node7" class="node">
<title>src/app/cli/TextRenderer.ts</title>
<g id="a_node7"><a xlink:href="src/app/cli/TextRenderer.ts" xlink:title="TextRenderer.ts">
<path fill="#ddfeff" stroke="black" d="M387.71,-49.88C387.71,-49.88 319.04,-49.88 319.04,-49.88 316.08,-49.88 313.12,-46.92 313.12,-43.96 313.12,-43.96 313.12,-38.04 313.12,-38.04 313.12,-35.08 316.08,-32.12 319.04,-32.12 319.04,-32.12 387.71,-32.12 387.71,-32.12 390.67,-32.12 393.62,-35.08 393.62,-38.04 393.62,-38.04 393.62,-43.96 393.62,-43.96 393.62,-46.92 390.67,-49.88 387.71,-49.88"/>
<text xml:space="preserve" text-anchor="start" x="321.12" y="-37.33" font-family="Helvetica,sans-Serif" font-size="9.00">TextRenderer.ts</text>
</a>
</g>
</g>
<!-- src/app/cli/ConsoleUserInterface.ts&#45;&gt;src/app/cli/TextRenderer.ts -->
<g id="edge2" class="edge">
<title>src/app/cli/ConsoleUserInterface.ts&#45;&gt;src/app/cli/TextRenderer.ts</title>
<path fill="none" stroke="#000000" stroke-width="2" stroke-opacity="0.200000" d="M288.93,-41C293.94,-41 298.98,-41 303.91,-41"/>
<polygon fill="#000000" fill-opacity="0.200000" stroke="#000000" stroke-width="2" stroke-opacity="0.200000" points="303.62,-43.1 309.62,-41 303.62,-38.9 303.62,-43.1"/>
</g>
<!-- src/app/persistence/FileSystemCatalog.ts -->
<g id="node8" class="node">
<title>src/app/persistence/FileSystemCatalog.ts</title>
<g id="a_node8"><a xlink:href="src/app/persistence/FileSystemCatalog.ts" xlink:title="FileSystemCatalog.ts">
<path fill="#ddfeff" stroke="black" d="M276.71,-109.88C276.71,-109.88 186.29,-109.88 186.29,-109.88 183.33,-109.88 180.38,-106.92 180.38,-103.96 180.38,-103.96 180.38,-98.04 180.38,-98.04 180.38,-95.08 183.33,-92.12 186.29,-92.12 186.29,-92.12 276.71,-92.12 276.71,-92.12 279.67,-92.12 282.62,-95.08 282.62,-98.04 282.62,-98.04 282.62,-103.96 282.62,-103.96 282.62,-106.92 279.67,-109.88 276.71,-109.88"/>
<text xml:space="preserve" text-anchor="start" x="188.38" y="-97.33" font-family="Helvetica,sans-Serif" font-size="9.00">FileSystemCatalog.ts</text>
</a>
</g>
</g>
<!-- src/core/cataloging/Card.ts -->
<g id="node9" class="node">
<title>src/core/cataloging/Card.ts</title>
<g id="a_node9"><a xlink:href="src/core/cataloging/Card.ts" xlink:title="Card.ts">
<path fill="#ddfeff" stroke="black" d="M374.46,-379.88C374.46,-379.88 332.29,-379.88 332.29,-379.88 329.33,-379.88 326.38,-376.92 326.38,-373.96 326.38,-373.96 326.38,-368.04 326.38,-368.04 326.38,-365.08 329.33,-362.12 332.29,-362.12 332.29,-362.12 374.46,-362.12 374.46,-362.12 377.42,-362.12 380.38,-365.08 380.38,-368.04 380.38,-368.04 380.38,-373.96 380.38,-373.96 380.38,-376.92 377.42,-379.88 374.46,-379.88"/>
<text xml:space="preserve" text-anchor="start" x="338.75" y="-367.32" font-family="Helvetica,sans-Serif" font-size="9.00">Card.ts</text>
</a>
</g>
</g>
<!-- src/app/persistence/FileSystemCatalog.ts&#45;&gt;src/core/cataloging/Card.ts -->
<g id="edge3" class="edge">
<title>src/app/persistence/FileSystemCatalog.ts&#45;&gt;src/core/cataloging/Card.ts</title>
<path fill="none" stroke="#000000" stroke-width="2" stroke-opacity="0.200000" d="M282.81,-104.3C289.65,-106.8 295.95,-110.53 300.75,-116 314.29,-131.42 305.19,-187.79 308.75,-208 318.23,-261.89 337.1,-323.92 346.61,-353.52"/>
<polygon fill="#000000" fill-opacity="0.200000" stroke="#000000" stroke-width="2" stroke-opacity="0.200000" points="344.56,-354 348.41,-359.06 348.55,-352.7 344.56,-354"/>
</g>
<!-- src/core/cataloging/Deck.ts -->
<g id="node10" class="node">
<title>src/core/cataloging/Deck.ts</title>
<g id="a_node10"><a xlink:href="src/core/cataloging/Deck.ts" xlink:title="Deck.ts">
<path fill="#ddfeff" stroke="black" d="M374.46,-409.88C374.46,-409.88 332.29,-409.88 332.29,-409.88 329.33,-409.88 326.38,-406.92 326.38,-403.96 326.38,-403.96 326.38,-398.04 326.38,-398.04 326.38,-395.08 329.33,-392.12 332.29,-392.12 332.29,-392.12 374.46,-392.12 374.46,-392.12 377.42,-392.12 380.38,-395.08 380.38,-398.04 380.38,-398.04 380.38,-403.96 380.38,-403.96 380.38,-406.92 377.42,-409.88 374.46,-409.88"/>
<text xml:space="preserve" text-anchor="start" x="338.38" y="-397.32" font-family="Helvetica,sans-Serif" font-size="9.00">Deck.ts</text>
</a>
</g>
</g>
<!-- src/app/persistence/FileSystemCatalog.ts&#45;&gt;src/core/cataloging/Deck.ts -->
<g id="edge4" class="edge">
<title>src/app/persistence/FileSystemCatalog.ts&#45;&gt;src/core/cataloging/Deck.ts</title>
<path fill="none" stroke="#000000" stroke-width="2" stroke-opacity="0.200000" d="M283.09,-104.06C289.89,-106.59 296.11,-110.4 300.75,-116 319.9,-139.11 290.96,-361.83 308.75,-386 311.17,-389.28 314.34,-391.85 317.89,-393.86"/>
<polygon fill="#000000" fill-opacity="0.200000" stroke="#000000" stroke-width="2" stroke-opacity="0.200000" points="316.96,-395.75 323.29,-396.22 318.64,-391.9 316.96,-395.75"/>
</g>
<!-- src/core/cataloging/Topic.ts -->
<g id="node11" class="node">
<title>src/core/cataloging/Topic.ts</title>
<g id="a_node11"><a xlink:href="src/core/cataloging/Topic.ts" xlink:title="Topic.ts">
<path fill="#ddfeff" stroke="black" d="M374.46,-439.88C374.46,-439.88 332.29,-439.88 332.29,-439.88 329.33,-439.88 326.38,-436.92 326.38,-433.96 326.38,-433.96 326.38,-428.04 326.38,-428.04 326.38,-425.08 329.33,-422.12 332.29,-422.12 332.29,-422.12 374.46,-422.12 374.46,-422.12 377.42,-422.12 380.38,-425.08 380.38,-428.04 380.38,-428.04 380.38,-433.96 380.38,-433.96 380.38,-436.92 377.42,-439.88 374.46,-439.88"/>
<text xml:space="preserve" text-anchor="start" x="338" y="-427.32" font-family="Helvetica,sans-Serif" font-size="9.00">Topic.ts</text>
</a>
</g>
</g>
<!-- src/app/persistence/FileSystemCatalog.ts&#45;&gt;src/core/cataloging/Topic.ts -->
<g id="edge5" class="edge">
<title>src/app/persistence/FileSystemCatalog.ts&#45;&gt;src/core/cataloging/Topic.ts</title>
<path fill="none" stroke="#000000" stroke-width="2" stroke-opacity="0.200000" d="M283.11,-104.05C289.9,-106.58 296.11,-110.39 300.75,-116 321.99,-141.71 289.02,-389.12 308.75,-416 311.16,-419.28 314.34,-421.86 317.88,-423.87"/>
<polygon fill="#000000" fill-opacity="0.200000" stroke="#000000" stroke-width="2" stroke-opacity="0.200000" points="316.95,-425.75 323.28,-426.23 318.63,-421.9 316.95,-425.75"/>
</g>
<!-- src/core/scheduling/Schedule.ts -->
<g id="node14" class="node">
<title>src/core/scheduling/Schedule.ts</title>
<g id="a_node14"><a xlink:href="src/core/scheduling/Schedule.ts" xlink:title="Schedule.ts">
<path fill="#ddfeff" stroke="black" d="M499.08,-416.88C499.08,-416.88 446.92,-416.88 446.92,-416.88 443.96,-416.88 441,-413.92 441,-410.96 441,-410.96 441,-405.04 441,-405.04 441,-402.08 443.96,-399.12 446.92,-399.12 446.92,-399.12 499.08,-399.12 499.08,-399.12 502.04,-399.12 505,-402.08 505,-405.04 505,-405.04 505,-410.96 505,-410.96 505,-413.92 502.04,-416.88 499.08,-416.88"/>
<text xml:space="preserve" text-anchor="start" x="449" y="-404.32" font-family="Helvetica,sans-Serif" font-size="9.00">Schedule.ts</text>
</a>
</g>
</g>
<!-- src/core/cataloging/Card.ts&#45;&gt;src/core/scheduling/Schedule.ts -->
<g id="edge12" class="edge">
<title>src/core/cataloging/Card.ts&#45;&gt;src/core/scheduling/Schedule.ts</title>
<path fill="none" stroke="#000000" stroke-width="2" stroke-opacity="0.200000" d="M380.63,-377.7C389.84,-380.17 400.23,-383.07 409.62,-386 419.11,-388.96 429.31,-392.43 438.65,-395.73"/>
<polygon fill="#000000" fill-opacity="0.200000" stroke="#000000" stroke-width="2" stroke-opacity="0.200000" points="437.74,-397.63 444.1,-397.67 439.16,-393.68 437.74,-397.63"/>
</g>
<!-- src/app/persistence/JsonConfig.ts -->
<g id="node12" class="node">
<title>src/app/persistence/JsonConfig.ts</title>
<g id="a_node12"><a xlink:href="src/app/persistence/JsonConfig.ts" xlink:title="JsonConfig.ts">
<path fill="#ddfeff" stroke="black" d="M261.33,-139.88C261.33,-139.88 201.67,-139.88 201.67,-139.88 198.71,-139.88 195.75,-136.92 195.75,-133.96 195.75,-133.96 195.75,-128.04 195.75,-128.04 195.75,-125.08 198.71,-122.12 201.67,-122.12 201.67,-122.12 261.33,-122.12 261.33,-122.12 264.29,-122.12 267.25,-125.08 267.25,-128.04 267.25,-128.04 267.25,-133.96 267.25,-133.96 267.25,-136.92 264.29,-139.88 261.33,-139.88"/>
<text xml:space="preserve" text-anchor="start" x="203.75" y="-127.33" font-family="Helvetica,sans-Serif" font-size="9.00">JsonConfig.ts</text>
</a>
</g>
</g>
<!-- src/app/persistence/SQLiteScheduleTracker.ts -->
<g id="node13" class="node">
<title>src/app/persistence/SQLiteScheduleTracker.ts</title>
<g id="a_node13"><a xlink:href="src/app/persistence/SQLiteScheduleTracker.ts" xlink:title="SQLiteScheduleTracker.ts">
<path fill="#ddfeff" stroke="black" d="M286.83,-169.88C286.83,-169.88 176.17,-169.88 176.17,-169.88 173.21,-169.88 170.25,-166.92 170.25,-163.96 170.25,-163.96 170.25,-158.04 170.25,-158.04 170.25,-155.08 173.21,-152.12 176.17,-152.12 176.17,-152.12 286.83,-152.12 286.83,-152.12 289.79,-152.12 292.75,-155.08 292.75,-158.04 292.75,-158.04 292.75,-163.96 292.75,-163.96 292.75,-166.92 289.79,-169.88 286.83,-169.88"/>
<text xml:space="preserve" text-anchor="start" x="178.25" y="-157.32" font-family="Helvetica,sans-Serif" font-size="9.00">SQLiteScheduleTracker.ts</text>
</a>
</g>
</g>
<!-- src/app/persistence/SQLiteScheduleTracker.ts&#45;&gt;src/core/scheduling/Schedule.ts -->
<g id="edge6" class="edge">
<title>src/app/persistence/SQLiteScheduleTracker.ts&#45;&gt;src/core/scheduling/Schedule.ts</title>
<path fill="none" stroke="#000000" stroke-width="2" stroke-opacity="0.200000" d="M292.98,-167.25C295.86,-169.1 298.49,-171.33 300.75,-174 312.43,-187.77 295.82,-486.39 308.75,-499 340.84,-530.31 375.92,-528.57 409.62,-499 430.18,-480.97 402.22,-460.59 417.62,-438 422.26,-431.2 428.98,-425.78 436.11,-421.53"/>
<polygon fill="#000000" fill-opacity="0.200000" stroke="#000000" stroke-width="2" stroke-opacity="0.200000" points="436.95,-423.46 441.26,-418.79 434.98,-419.76 436.95,-423.46"/>
</g>
<!-- src/core/scheduling/ConsecutiveSuccesses.ts -->
<g id="node17" class="node">
<title>src/core/scheduling/ConsecutiveSuccesses.ts</title>
<g id="a_node17"><a xlink:href="src/core/scheduling/ConsecutiveSuccesses.ts" xlink:title="ConsecutiveSuccesses.ts">
<path fill="#ddfeff" stroke="black" d="M647.71,-379.88C647.71,-379.88 539.29,-379.88 539.29,-379.88 536.33,-379.88 533.38,-376.92 533.38,-373.96 533.38,-373.96 533.38,-368.04 533.38,-368.04 533.38,-365.08 536.33,-362.12 539.29,-362.12 539.29,-362.12 647.71,-362.12 647.71,-362.12 650.67,-362.12 653.62,-365.08 653.62,-368.04 653.62,-368.04 653.62,-373.96 653.62,-373.96 653.62,-376.92 650.67,-379.88 647.71,-379.88"/>
<text xml:space="preserve" text-anchor="start" x="541.38" y="-367.32" font-family="Helvetica,sans-Serif" font-size="9.00">ConsecutiveSuccesses.ts</text>
</a>
</g>
</g>
<!-- src/core/scheduling/Schedule.ts&#45;&gt;src/core/scheduling/ConsecutiveSuccesses.ts -->
<g id="edge13" class="edge">
<title>src/core/scheduling/Schedule.ts&#45;&gt;src/core/scheduling/ConsecutiveSuccesses.ts</title>
<path fill="none" stroke="#000000" stroke-width="2" stroke-opacity="0.200000" d="M497.49,-398.64C508.33,-394.49 521.41,-389.72 533.38,-386 537.06,-384.85 540.89,-383.73 544.75,-382.65"/>
<polygon fill="#000000" fill-opacity="0.200000" stroke="#000000" stroke-width="2" stroke-opacity="0.200000" points="545.06,-384.74 550.3,-381.14 543.96,-380.69 545.06,-384.74"/>
</g>
<!-- src/core/scheduling/DateReviewed.ts -->
<g id="node18" class="node">
<title>src/core/scheduling/DateReviewed.ts</title>
<g id="a_node18"><a xlink:href="src/core/scheduling/DateReviewed.ts" xlink:title="DateReviewed.ts">
<path fill="#ddfeff" stroke="black" d="M630.46,-409.88C630.46,-409.88 556.54,-409.88 556.54,-409.88 553.58,-409.88 550.62,-406.92 550.62,-403.96 550.62,-403.96 550.62,-398.04 550.62,-398.04 550.62,-395.08 553.58,-392.12 556.54,-392.12 556.54,-392.12 630.46,-392.12 630.46,-392.12 633.42,-392.12 636.38,-395.08 636.38,-398.04 636.38,-398.04 636.38,-403.96 636.38,-403.96 636.38,-406.92 633.42,-409.88 630.46,-409.88"/>
<text xml:space="preserve" text-anchor="start" x="558.62" y="-397.32" font-family="Helvetica,sans-Serif" font-size="9.00">DateReviewed.ts</text>
</a>
</g>
</g>
<!-- src/core/scheduling/Schedule.ts&#45;&gt;src/core/scheduling/DateReviewed.ts -->
<g id="edge14" class="edge">
<title>src/core/scheduling/Schedule.ts&#45;&gt;src/core/scheduling/DateReviewed.ts</title>
<path fill="none" stroke="#000000" stroke-width="2" stroke-opacity="0.200000" d="M505.44,-406.14C516.48,-405.49 529.18,-404.74 541.41,-404.02"/>
<polygon fill="#000000" fill-opacity="0.200000" stroke="#000000" stroke-width="2" stroke-opacity="0.200000" points="541.31,-406.13 547.17,-403.68 541.06,-401.94 541.31,-406.13"/>
</g>
<!-- src/core/scheduling/MemoryStrength.ts -->
<g id="node19" class="node">
<title>src/core/scheduling/MemoryStrength.ts</title>
<g id="a_node19"><a xlink:href="src/core/scheduling/MemoryStrength.ts" xlink:title="MemoryStrength.ts">
<path fill="#ddfeff" stroke="black" d="M633.83,-439.88C633.83,-439.88 553.17,-439.88 553.17,-439.88 550.21,-439.88 547.25,-436.92 547.25,-433.96 547.25,-433.96 547.25,-428.04 547.25,-428.04 547.25,-425.08 550.21,-422.12 553.17,-422.12 553.17,-422.12 633.83,-422.12 633.83,-422.12 636.79,-422.12 639.75,-425.08 639.75,-428.04 639.75,-428.04 639.75,-433.96 639.75,-433.96 639.75,-436.92 636.79,-439.88 633.83,-439.88"/>
<text xml:space="preserve" text-anchor="start" x="555.25" y="-427.32" font-family="Helvetica,sans-Serif" font-size="9.00">MemoryStrength.ts</text>
</a>
</g>
</g>
<!-- src/core/scheduling/Schedule.ts&#45;&gt;src/core/scheduling/MemoryStrength.ts -->
<g id="edge15" class="edge">
<title>src/core/scheduling/Schedule.ts&#45;&gt;src/core/scheduling/MemoryStrength.ts</title>
<path fill="none" stroke="#000000" stroke-width="2" stroke-opacity="0.200000" d="M505.44,-414.1C515.61,-416.08 527.18,-418.32 538.5,-420.52"/>
<polygon fill="#000000" fill-opacity="0.200000" stroke="#000000" stroke-width="2" stroke-opacity="0.200000" points="537.81,-422.52 544.1,-421.61 538.61,-418.4 537.81,-422.52"/>
</g>
<!-- src/core/scheduling/ReviewInterval.ts -->
<g id="node20" class="node">
<title>src/core/scheduling/ReviewInterval.ts</title>
<g id="a_node20"><a xlink:href="src/core/scheduling/ReviewInterval.ts" xlink:title="ReviewInterval.ts">
<path fill="#ddfeff" stroke="black" d="M630.46,-469.88C630.46,-469.88 556.54,-469.88 556.54,-469.88 553.58,-469.88 550.62,-466.92 550.62,-463.96 550.62,-463.96 550.62,-458.04 550.62,-458.04 550.62,-455.08 553.58,-452.12 556.54,-452.12 556.54,-452.12 630.46,-452.12 630.46,-452.12 633.42,-452.12 636.38,-455.08 636.38,-458.04 636.38,-458.04 636.38,-463.96 636.38,-463.96 636.38,-466.92 633.42,-469.88 630.46,-469.88"/>
<text xml:space="preserve" text-anchor="start" x="558.62" y="-457.32" font-family="Helvetica,sans-Serif" font-size="9.00">ReviewInterval.ts</text>
</a>
</g>
</g>
<!-- src/core/scheduling/Schedule.ts&#45;&gt;src/core/scheduling/ReviewInterval.ts -->
<g id="edge16" class="edge">
<title>src/core/scheduling/Schedule.ts&#45;&gt;src/core/scheduling/ReviewInterval.ts</title>
<path fill="none" stroke="#000000" stroke-width="2" stroke-opacity="0.200000" d="M488.2,-417.25C504.99,-428.16 530.96,-444.95 533.38,-446 536.13,-447.19 539,-448.31 541.93,-449.34"/>
<polygon fill="#000000" fill-opacity="0.200000" stroke="#000000" stroke-width="2" stroke-opacity="0.200000" points="541.04,-451.26 547.4,-451.12 542.34,-447.27 541.04,-451.26"/>
</g>
<!-- src/bootstrap.ts -->
<g id="node15" class="node">
<title>src/bootstrap.ts</title>
<g id="a_node15"><a xlink:href="src/bootstrap.ts" xlink:title="bootstrap.ts">
<path fill="#ddfeff" stroke="black" d="M140.33,-139.88C140.33,-139.88 88.92,-139.88 88.92,-139.88 85.96,-139.88 83,-136.92 83,-133.96 83,-133.96 83,-128.04 83,-128.04 83,-125.08 85.96,-122.12 88.92,-122.12 88.92,-122.12 140.33,-122.12 140.33,-122.12 143.29,-122.12 146.25,-125.08 146.25,-128.04 146.25,-128.04 146.25,-133.96 146.25,-133.96 146.25,-136.92 143.29,-139.88 140.33,-139.88"/>
<text xml:space="preserve" text-anchor="start" x="91" y="-127.33" font-family="Helvetica,sans-Serif" font-size="9.00">bootstrap.ts</text>
</a>
</g>
</g>
<!-- src/bootstrap.ts&#45;&gt;src/app/Reps.ts -->
<g id="edge11" class="edge">
<title>src/bootstrap.ts&#45;&gt;src/app/Reps.ts</title>
<path fill="none" stroke="#000000" stroke-width="2" stroke-opacity="0.200000" d="M115.44,-140.34C115.52,-163.94 119.2,-226.32 154.25,-258 165.36,-268.04 181.16,-272.19 195.51,-273.68"/>
<polygon fill="#000000" fill-opacity="0.200000" stroke="#000000" stroke-width="2" stroke-opacity="0.200000" points="195.04,-275.75 201.17,-274.07 195.33,-271.56 195.04,-275.75"/>
</g>
<!-- src/bootstrap.ts&#45;&gt;src/app/cli/ConsoleUserInterface.ts -->
<g id="edge7" class="edge">
<title>src/bootstrap.ts&#45;&gt;src/app/cli/ConsoleUserInterface.ts</title>
<path fill="none" stroke="#000000" stroke-width="2" stroke-opacity="0.200000" d="M120.94,-121.92C127.62,-111.1 139.96,-92.99 154.25,-81 167.37,-70 184.01,-60.83 198.39,-54.06"/>
<polygon fill="#000000" fill-opacity="0.200000" stroke="#000000" stroke-width="2" stroke-opacity="0.200000" points="199.21,-56 203.8,-51.61 197.47,-52.18 199.21,-56"/>
</g>
<!-- src/bootstrap.ts&#45;&gt;src/app/persistence/FileSystemCatalog.ts -->
<g id="edge8" class="edge">
<title>src/bootstrap.ts&#45;&gt;src/app/persistence/FileSystemCatalog.ts</title>
<path fill="none" stroke="#000000" stroke-width="2" stroke-opacity="0.200000" d="M137.45,-121.75C142.88,-119.67 148.72,-117.6 154.25,-116 159.82,-114.38 165.67,-112.89 171.55,-111.52"/>
<polygon fill="#000000" fill-opacity="0.200000" stroke="#000000" stroke-width="2" stroke-opacity="0.200000" points="171.8,-113.61 177.2,-110.26 170.89,-109.51 171.8,-113.61"/>
</g>
<!-- src/bootstrap.ts&#45;&gt;src/app/persistence/JsonConfig.ts -->
<g id="edge9" class="edge">
<title>src/bootstrap.ts&#45;&gt;src/app/persistence/JsonConfig.ts</title>
<path fill="none" stroke="#000000" stroke-width="2" stroke-opacity="0.200000" d="M146.71,-131C158.91,-131 173.14,-131 186.37,-131"/>
<polygon fill="#000000" fill-opacity="0.200000" stroke="#000000" stroke-width="2" stroke-opacity="0.200000" points="186.31,-133.1 192.31,-131 186.31,-128.9 186.31,-133.1"/>
</g>
<!-- src/bootstrap.ts&#45;&gt;src/app/persistence/SQLiteScheduleTracker.ts -->
<g id="edge10" class="edge">
<title>src/bootstrap.ts&#45;&gt;src/app/persistence/SQLiteScheduleTracker.ts</title>
<path fill="none" stroke="#000000" stroke-width="2" stroke-opacity="0.200000" d="M137.45,-140.25C142.88,-142.33 148.72,-144.4 154.25,-146 158.79,-147.32 163.51,-148.55 168.28,-149.71"/>
<polygon fill="#000000" fill-opacity="0.200000" stroke="#000000" stroke-width="2" stroke-opacity="0.200000" points="167.62,-151.71 173.94,-151.01 168.56,-147.62 167.62,-151.71"/>
</g>
<!-- src/core/cataloging/Catalog.ts -->
<g id="node16" class="node">
<title>src/core/cataloging/Catalog.ts</title>
<g id="a_node16"><a xlink:href="src/core/cataloging/Catalog.ts" xlink:title="Catalog.ts">
<path fill="#ccffcc" stroke="black" d="M376.08,-469.88C376.08,-469.88 330.67,-469.88 330.67,-469.88 327.71,-469.88 324.75,-466.92 324.75,-463.96 324.75,-463.96 324.75,-458.04 324.75,-458.04 324.75,-455.08 327.71,-452.12 330.67,-452.12 330.67,-452.12 376.08,-452.12 376.08,-452.12 379.04,-452.12 382,-455.08 382,-458.04 382,-458.04 382,-463.96 382,-463.96 382,-466.92 379.04,-469.88 376.08,-469.88"/>
<text xml:space="preserve" text-anchor="start" x="332.75" y="-457.32" font-family="Helvetica,sans-Serif" font-size="9.00">Catalog.ts</text>
</a>
</g>
</g>
<!-- src/core/scheduling/ScheduleTracker.ts -->
<g id="node21" class="node">
<title>src/core/scheduling/ScheduleTracker.ts</title>
<g id="a_node21"><a xlink:href="src/core/scheduling/ScheduleTracker.ts" xlink:title="ScheduleTracker.ts">
<path fill="#ccffcc" stroke="black" d="M514.46,-461.88C514.46,-461.88 431.54,-461.88 431.54,-461.88 428.58,-461.88 425.62,-458.92 425.62,-455.96 425.62,-455.96 425.62,-450.04 425.62,-450.04 425.62,-447.08 428.58,-444.12 431.54,-444.12 431.54,-444.12 514.46,-444.12 514.46,-444.12 517.42,-444.12 520.38,-447.08 520.38,-450.04 520.38,-450.04 520.38,-455.96 520.38,-455.96 520.38,-458.92 517.42,-461.88 514.46,-461.88"/>
<text xml:space="preserve" text-anchor="start" x="433.62" y="-449.32" font-family="Helvetica,sans-Serif" font-size="9.00">ScheduleTracker.ts</text>
</a>
</g>
</g>
<!-- src/main.ts -->
<g id="node22" class="node">
<title>src/main.ts</title>
<g id="a_node22"><a xlink:href="src/main.ts" xlink:title="main.ts">
<path fill="#ddfeff" stroke="black" d="M64.08,-139.88C64.08,-139.88 21.92,-139.88 21.92,-139.88 18.96,-139.88 16,-136.92 16,-133.96 16,-133.96 16,-128.04 16,-128.04 16,-125.08 18.96,-122.12 21.92,-122.12 21.92,-122.12 64.08,-122.12 64.08,-122.12 67.04,-122.12 70,-125.08 70,-128.04 70,-128.04 70,-133.96 70,-133.96 70,-136.92 67.04,-139.88 64.08,-139.88"/>
<text xml:space="preserve" text-anchor="start" x="28.38" y="-127.33" font-family="Helvetica,sans-Serif" font-size="9.00">main.ts</text>
</a>
</g>
</g>
<!-- src/main.ts&#45;&gt;src/bootstrap.ts -->
<g id="edge17" class="edge">
<title>src/main.ts&#45;&gt;src/bootstrap.ts</title>
<path fill="none" stroke="#000000" stroke-width="2" stroke-opacity="0.200000" d="M70.32,-131C71.45,-131 72.59,-131 73.73,-131"/>
<polygon fill="#000000" fill-opacity="0.200000" stroke="#000000" stroke-width="2" stroke-opacity="0.200000" points="73.56,-133.1 79.56,-131 73.56,-128.9 73.56,-133.1"/>
</g>
</g>
</svg>
