<?xml version="1.0" encoding="UTF-8" standalone="no"?>
<!DOCTYPE svg PUBLIC "-//W3C//DTD SVG 1.1//EN"
 "http://www.w3.org/Graphics/SVG/1.1/DTD/svg11.dtd">
<!-- Generated by graphviz version 14.1.2 (20260124.0452)
 -->
<!-- Title: dependency&#45;cruiser output Pages: 1 -->
<svg width="694pt" height="504pt"
 viewBox="0.00 0.00 694.00 504.00" xmlns="http://www.w3.org/2000/svg" xmlns:xlink="http://www.w3.org/1999/xlink">
<g id="graph0" class="graph" transform="scale(1 1) rotate(0) translate(4 500)">
<title>dependency&#45;cruiser output</title>
<polygon fill="white" stroke="none" points="-4,4 -4,-500 689.62,-500 689.62,4 -4,4"/>
<g id="clust1" class="cluster">
<title>cluster_src</title>
<path fill="#ffffff" stroke="black" stroke-width="2" d="M20,-8C20,-8 665.62,-8 665.62,-8 671.62,-8 677.62,-14 677.62,-20 677.62,-20 677.62,-476 677.62,-476 677.62,-482 671.62,-488 665.62,-488 665.62,-488 20,-488 20,-488 14,-488 8,-482 8,-476 8,-476 8,-20 8,-20 8,-14 14,-8 20,-8"/>
<text xml:space="preserve" text-anchor="middle" x="342.81" y="-475.45" font-family="Helvetica,sans-Serif" font-weight="bold" font-size="9.00">src</text>
</g>
<g id="clust2" class="cluster">
<title>cluster_src/app</title>
<path fill="#ffffff" stroke="black" stroke-width="2" d="M166.25,-16C166.25,-16 397.62,-16 397.62,-16 403.62,-16 409.62,-22 409.62,-28 409.62,-28 409.62,-266 409.62,-266 409.62,-272 403.62,-278 397.62,-278 397.62,-278 166.25,-278 166.25,-278 160.25,-278 154.25,-272 154.25,-266 154.25,-266 154.25,-28 154.25,-28 154.25,-22 160.25,-16 166.25,-16"/>
<text xml:space="preserve" text-anchor="middle" x="281.94" y="-265.45" font-family="Helvetica,sans-Serif" font-weight="bold" font-size="9.00">app</text>
</g>
<g id="clust3" class="cluster">
<title>cluster_src/app/cli</title>
<path fill="#ffffff" stroke="black" stroke-width="2" d="M178.38,-24C178.38,-24 389.62,-24 389.62,-24 395.62,-24 401.62,-30 401.62,-36 401.62,-36 401.62,-64 401.62,-64 401.62,-70 395.62,-76 389.62,-76 389.62,-76 178.38,-76 178.38,-76 172.38,-76 166.38,-70 166.38,-64 166.38,-64 166.38,-36 166.38,-36 166.38,-30 172.38,-24 178.38,-24"/>
<text xml:space="preserve" text-anchor="middle" x="284" y="-63.45" font-family="Helvetica,sans-Serif" font-weight="bold" font-size="9.00">cli</text>
</g>
<g id="clust4" class="cluster">
<title>cluster_src/app/persistence</title>
<path fill="#ffffff" stroke="black" stroke-width="2" d="M174.25,-84C174.25,-84 288.75,-84 288.75,-84 294.75,-84 300.75,-90 300.75,-96 300.75,-96 300.75,-184 300.75,-184 300.75,-190 294.75,-196 288.75,-196 288.75,-196 174.25,-196 174.25,-196 168.25,-196 162.25,-190 162.25,-184 162.25,-184 162.25,-96 162.25,-96 162.25,-90 168.25,-84 174.25,-84"/>
<text xml:space="preserve" text-anchor="middle" x="231.5" y="-183.45" font-family="Helvetica,sans-Serif" font-weight="bold" font-size="9.00">persistence</text>
</g>
<g id="clust5" class="cluster">
<title>cluster_src/core</title>
<path fill="#ffffff" stroke="black" stroke-width="2" d="M320.75,-286C320.75,-286 657.62,-286 657.62,-286 663.62,-286 669.62,-292 669.62,-298 669.62,-298 669.62,-450 669.62,-450 669.62,-456 663.62,-462 657.62,-462 657.62,-462 320.75,-462 320.75,-462 314.75,-462 308.75,-456 308.75,-450 308.75,-450 308.75,-298 308.75,-298 308.75,-292 314.75,-286 320.75,-286"/>
<text xml:space="preserve" text-anchor="middle" x="489.19" y="-449.45" font-family="Helvetica,sans-Serif" font-weight="bold" font-size="9.00">core</text>
</g>
<g id="clust6" class="cluster">
<title>cluster_src/core/cataloging</title>
<path fill="#ffffff" stroke="black" stroke-width="2" d="M328.75,-294C328.75,-294 378,-294 378,-294 384,-294 390,-300 390,-306 390,-306 390,-424 390,-424 390,-430 384,-436 378,-436 378,-436 328.75,-436 328.75,-436 322.75,-436 316.75,-430 316.75,-424 316.75,-424 316.75,-306 316.75,-306 316.75,-300 322.75,-294 328.75,-294"/>
<text xml:space="preserve" text-anchor="middle" x="353.38" y="-423.45" font-family="Helvetica,sans-Serif" font-weight="bold" font-size="9.00">cataloging</text>
</g>
<g id="clust7" class="cluster">
<title>cluster_src/core/scheduling</title>
<path fill="#ffffff" stroke="black" stroke-width="2" d="M429.62,-294C429.62,-294 649.62,-294 649.62,-294 655.62,-294 661.62,-300 661.62,-306 661.62,-306 661.62,-424 661.62,-424 661.62,-430 655.62,-436 649.62,-436 649.62,-436 429.62,-436 429.62,-436 423.62,-436 417.62,-430 417.62,-424 417.62,-424 417.62,-306 417.62,-306 417.62,-300 423.62,-294 429.62,-294"/>
<text xml:space="preserve" text-anchor="middle" x="539.62" y="-423.45" font-family="Helvetica,sans-Serif" font-weight="bold" font-size="9.00">scheduling</text>
</g>
<!-- src/app/Reps.ts -->
<g id="node1" class="node">
<title>src/app/Reps.ts</title>
<g id="a_node1"><a xlink:href="src/app/Reps.ts" xlink:title="Reps.ts">
<path fill="#ddfeff" stroke="black" d="M252.58,-221.88C252.58,-221.88 210.42,-221.88 210.42,-221.88 207.46,-221.88 204.5,-218.92 204.5,-215.96 204.5,-215.96 204.5,-210.04 204.5,-210.04 204.5,-207.08 207.46,-204.12 210.42,-204.12 210.42,-204.12 252.58,-204.12 252.58,-204.12 255.54,-204.12 258.5,-207.08 258.5,-210.04 258.5,-210.04 258.5,-215.96 258.5,-215.96 258.5,-218.92 255.54,-221.88 252.58,-221.88"/>
<text xml:space="preserve" text-anchor="start" x="216.12" y="-209.32" font-family="Helvetica,sans-Serif" font-size="9.00">Reps.ts</text>
</a>
</g>
</g>
<!-- src/app/UserInterface.ts -->
<g id="node2" class="node">
<title>src/app/UserInterface.ts</title>
<g id="a_node2"><a xlink:href="src/app/UserInterface.ts" xlink:title="UserInterface.ts">
<path fill="#ccffcc" stroke="black" d="M265.46,-251.88C265.46,-251.88 197.54,-251.88 197.54,-251.88 194.58,-251.88 191.62,-248.92 191.62,-245.96 191.62,-245.96 191.62,-240.04 191.62,-240.04 191.62,-237.08 194.58,-234.12 197.54,-234.12 197.54,-234.12 265.46,-234.12 265.46,-234.12 268.42,-234.12 271.38,-237.08 271.38,-240.04 271.38,-240.04 271.38,-245.96 271.38,-245.96 271.38,-248.92 268.42,-251.88 265.46,-251.88"/>
<text xml:space="preserve" text-anchor="start" x="199.62" y="-239.32" font-family="Helvetica,sans-Serif" font-size="9.00">UserInterface.ts</text>
</a>
</g>
</g>
<!-- src/app/cli/ConsoleUserInterface.ts -->
<g id="node3" class="node">
<title>src/app/cli/ConsoleUserInterface.ts</title>
<g id="a_node3"><a xlink:href="src/app/cli/ConsoleUserInterface.ts" xlink:title="ConsoleUserInterface.ts">
<path fill="#ddfeff" stroke="black" d="M282.71,-49.88C282.71,-49.88 180.29,-49.88 180.29,-49.88 177.33,-49.88 174.38,-46.92 174.38,-43.96 174.38,-43.96 174.38,-38.04 174.38,-38.04 174.38,-35.08 177.33,-32.12 180.29,-32.12 180.29,-32.12 282.71,-32.12 282.71,-32.12 285.67,-32.12 288.62,-35.08 288.62,-38.04 288.62,-38.04 288.62,-43.96 288.62,-43.96 288.62,-46.92 285.67,-49.88 282.71,-49.88"/>
<text xml:space="preserve" text-anchor="start" x="182.38" y="-37.33" font-family="Helvetica,sans-Serif" font-size="9.00">ConsoleUserInterface.ts</text>
</a>
</g>
</g>
<!-- src/core/scheduling/Grade.ts -->
<g id="node4" class="node">
<title>src/core/scheduling/Grade.ts</title>
<g id="a_node4"><a xlink:href="src/core/scheduling/Grade.ts" xlink:title="Grade.ts">
<path fill="#ddfeff" stroke="black" d="M494.08,-319.88C494.08,-319.88 451.92,-319.88 451.92,-319.88 448.96,-319.88 446,-316.92 446,-313.96 446,-313.96 446,-308.04 446,-308.04 446,-305.08 448.96,-302.12 451.92,-302.12 451.92,-302.12 494.08,-302.12 494.08,-302.12 497.04,-302.12 500,-305.08 500,-308.04 500,-308.04 500,-313.96 500,-313.96 500,-316.92 497.04,-319.88 494.08,-319.88"/>
<text xml:space="preserve" text-anchor="start" x="455.75" y="-307.32" font-family="Helvetica,sans-Serif" font-size="9.00">Grade.ts</text>
</a>
</g>
</g>
<!-- src/app/cli/ConsoleUserInterface.ts&#45;&gt;src/core/scheduling/Grade.ts -->
<g id="edge1" class="edge">
<title>src/app/cli/ConsoleUserInterface.ts&#45;&gt;src/core/scheduling/Grade.ts</title>
<path fill="none" stroke="#000000" stroke-width="2" stroke-opacity="0.200000" d="M253.02,-50.29C267.36,-57.41 286.43,-68.17 300.75,-81 375.87,-148.29 439.34,-253.12 462.56,-293.93"/>
<polygon fill="#000000" fill-opacity="0.200000" stroke="#000000" stroke-width="2" stroke-opacity="0.200000" points="460.63,-294.79 465.41,-298.99 464.29,-292.73 460.63,-294.79"/>
</g>
<!-- src/app/cli/TextRenderer.ts -->
<g id="node5" class="node">
<title>src/app/cli/TextRenderer.ts</title>
<g id="a_node5"><a xlink:href="src/app/cli/TextRenderer.ts" xlink:title="TextRenderer.ts">
<path fill="#ddfeff" stroke="black" d="M387.71,-49.88C387.71,-49.88 319.04,-49.88 319.04,-49.88 316.08,-49.88 313.12,-46.92 313.12,-43.96 313.12,-43.96 313.12,-38.04 313.12,-38.04 313.12,-35.08 316.08,-32.12 319.04,-32.12 319.04,-32.12 387.71,-32.12 387.71,-32.12 390.67,-32.12 393.62,-35.08 393.62,-38.04 393.62,-38.04 393.62,-43.96 393.62,-43.96 393.62,-46.92 390.67,-49.88 387.71,-49.88"/>
<text xml:space="preserve" text-anchor="start" x="321.12" y="-37.33" font-family="Helvetica,sans-Serif" font-size="9.00">TextRenderer.ts</text>
</a>
</g>
</g>
<!-- src/app/cli/ConsoleUserInterface.ts&#45;&gt;src/app/cli/TextRenderer.ts -->
<g id="edge2" class="edge">
<title>src/app/cli/ConsoleUserInterface.ts&#45;&gt;src/app/cli/TextRenderer.ts</title>
<path fill="none" stroke="#000000" stroke-width="2" stroke-opacity="0.200000" d="M288.93,-41C293.94,-41 298.98,-41 303.91,-41"/>
<polygon fill="#000000" fill-opacity="0.200000" stroke="#000000" stroke-width="2" stroke-opacity="0.200000" points="303.62,-43.1 309.62,-41 303.62,-38.9 303.62,-43.1"/>
</g>
<!-- src/app/persistence/Config.ts -->
<g id="node6" class="node">
<title>src/app/persistence/Config.ts</title>
<g id="a_node6"><a xlink:href="src/app/persistence/Config.ts" xlink:title="Config.ts">
<path fill="#ddfeff" stroke="black" d="M252.58,-109.88C252.58,-109.88 210.42,-109.88 210.42,-109.88 207.46,-109.88 204.5,-106.92 204.5,-103.96 204.5,-103.96 204.5,-98.04 204.5,-98.04 204.5,-95.08 207.46,-92.12 210.42,-92.12 210.42,-92.12 252.58,-92.12 252.58,-92.12 255.54,-92.12 258.5,-95.08 258.5,-98.04 258.5,-98.04 258.5,-103.96 258.5,-103.96 258.5,-106.92 255.54,-109.88 252.58,-109.88"/>
<text xml:space="preserve" text-anchor="start" x="213.5" y="-97.33" font-family="Helvetica,sans-Serif" font-size="9.00">Config.ts</text>
</a>
</g>
</g>
<!-- src/app/persistence/FileSystemCatalog.ts -->
<g id="node7" class="node">
<title>src/app/persistence/FileSystemCatalog.ts</title>
<g id="a_node7"><a xlink:href="src/app/persistence/FileSystemCatalog.ts" xlink:title="FileSystemCatalog.ts">
<path fill="#ddfeff" stroke="black" d="M276.71,-139.88C276.71,-139.88 186.29,-139.88 186.29,-139.88 183.33,-139.88 180.38,-136.92 180.38,-133.96 180.38,-133.96 180.38,-128.04 180.38,-128.04 180.38,-125.08 183.33,-122.12 186.29,-122.12 186.29,-122.12 276.71,-122.12 276.71,-122.12 279.67,-122.12 282.62,-125.08 282.62,-128.04 282.62,-128.04 282.62,-133.96 282.62,-133.96 282.62,-136.92 279.67,-139.88 276.71,-139.88"/>
<text xml:space="preserve" text-anchor="start" x="188.38" y="-127.33" font-family="Helvetica,sans-Serif" font-size="9.00">FileSystemCatalog.ts</text>
</a>
</g>
</g>
<!-- src/core/cataloging/Card.ts -->
<g id="node8" class="node">
<title>src/core/cataloging/Card.ts</title>
<g id="a_node8"><a xlink:href="src/core/cataloging/Card.ts" xlink:title="Card.ts">
<path fill="#ddfeff" stroke="black" d="M374.46,-319.88C374.46,-319.88 332.29,-319.88 332.29,-319.88 329.33,-319.88 326.38,-316.92 326.38,-313.96 326.38,-313.96 326.38,-308.04 326.38,-308.04 326.38,-305.08 329.33,-302.12 332.29,-302.12 332.29,-302.12 374.46,-302.12 374.46,-302.12 377.42,-302.12 380.38,-305.08 380.38,-308.04 380.38,-308.04 380.38,-313.96 380.38,-313.96 380.38,-316.92 377.42,-319.88 374.46,-319.88"/>
<text xml:space="preserve" text-anchor="start" x="338.75" y="-307.32" font-family="Helvetica,sans-Serif" font-size="9.00">Card.ts</text>
</a>
</g>
</g>
<!-- src/app/persistence/FileSystemCatalog.ts&#45;&gt;src/core/cataloging/Card.ts -->
<g id="edge3" class="edge">
<title>src/app/persistence/FileSystemCatalog.ts&#45;&gt;src/core/cataloging/Card.ts</title>
<path fill="none" stroke="#000000" stroke-width="2" stroke-opacity="0.200000" d="M283.12,-135.36C289.66,-137.76 295.79,-141.18 300.75,-146 311.26,-156.22 304.69,-163.91 308.75,-178 320.81,-219.8 337.34,-268.17 346.18,-293.49"/>
<polygon fill="#000000" fill-opacity="0.200000" stroke="#000000" stroke-width="2" stroke-opacity="0.200000" points="344.1,-293.9 348.07,-298.86 348.06,-292.51 344.1,-293.9"/>
</g>
<!-- src/core/cataloging/Deck.ts -->
<g id="node9" class="node">
<title>src/core/cataloging/Deck.ts</title>
<g id="a_node9"><a xlink:href="src/core/cataloging/Deck.ts" xlink:title="Deck.ts">
<path fill="#ddfeff" stroke="black" d="M374.46,-349.88C374.46,-349.88 332.29,-349.88 332.29,-349.88 329.33,-349.88 326.38,-346.92 326.38,-343.96 326.38,-343.96 326.38,-338.04 326.38,-338.04 326.38,-335.08 329.33,-332.12 332.29,-332.12 332.29,-332.12 374.46,-332.12 374.46,-332.12 377.42,-332.12 380.38,-335.08 380.38,-338.04 380.38,-338.04 380.38,-343.96 380.38,-343.96 380.38,-346.92 377.42,-349.88 374.46,-349.88"/>
<text xml:space="preserve" text-anchor="start" x="338.38" y="-337.32" font-family="Helvetica,sans-Serif" font-size="9.00">Deck.ts</text>
</a>
</g>
</g>
<!-- src/app/persistence/FileSystemCatalog.ts&#45;&gt;src/core/cataloging/Deck.ts -->
<g id="edge4" class="edge">
<title>src/app/persistence/FileSystemCatalog.ts&#45;&gt;src/core/cataloging/Deck.ts</title>
<path fill="none" stroke="#000000" stroke-width="2" stroke-opacity="0.200000" d="M283.02,-134.12C289.83,-136.65 296.06,-140.43 300.75,-146 313.64,-161.32 296.76,-309.97 308.75,-326 311.19,-329.26 314.38,-331.82 317.93,-333.83"/>
<polygon fill="#000000" fill-opacity="0.200000" stroke="#000000" stroke-width="2" stroke-opacity="0.200000" points="317.01,-335.71 323.35,-336.18 318.68,-331.86 317.01,-335.71"/>
</g>
<!-- src/core/cataloging/Topic.ts -->
<g id="node10" class="node">
<title>src/core/cataloging/Topic.ts</title>
<g id="a_node10"><a xlink:href="src/core/cataloging/Topic.ts" xlink:title="Topic.ts">
<path fill="#ddfeff" stroke="black" d="M374.46,-379.88C374.46,-379.88 332.29,-379.88 332.29,-379.88 329.33,-379.88 326.38,-376.92 326.38,-373.96 326.38,-373.96 326.38,-368.04 326.38,-368.04 326.38,-365.08 329.33,-362.12 332.29,-362.12 332.29,-362.12 374.46,-362.12 374.46,-362.12 377.42,-362.12 380.38,-365.08 380.38,-368.04 380.38,-368.04 380.38,-373.96 380.38,-373.96 380.38,-376.92 377.42,-379.88 374.46,-379.88"/>
<text xml:space="preserve" text-anchor="start" x="338" y="-367.32" font-family="Helvetica,sans-Serif" font-size="9.00">Topic.ts</text>
</a>
</g>
</g>
<!-- src/app/persistence/FileSystemCatalog.ts&#45;&gt;src/core/cataloging/Topic.ts -->
<g id="edge5" class="edge">
<title>src/app/persistence/FileSystemCatalog.ts&#45;&gt;src/core/cataloging/Topic.ts</title>
<path fill="none" stroke="#000000" stroke-width="2" stroke-opacity="0.200000" d="M283.05,-134.09C289.85,-136.62 296.08,-140.42 300.75,-146 315.73,-163.92 294.83,-337.25 308.75,-356 311.18,-359.27 314.37,-361.83 317.91,-363.84"/>
<polygon fill="#000000" fill-opacity="0.200000" stroke="#000000" stroke-width="2" stroke-opacity="0.200000" points="316.99,-365.73 323.33,-366.2 318.66,-361.88 316.99,-365.73"/>
</g>
<!-- src/core/scheduling/Schedule.ts -->
<g id="node12" class="node">
<title>src/core/scheduling/Schedule.ts</title>
<g id="a_node12"><a xlink:href="src/core/scheduling/Schedule.ts" xlink:title="Schedule.ts">
<path fill="#ddfeff" stroke="black" d="M499.08,-356.88C499.08,-356.88 446.92,-356.88 446.92,-356.88 443.96,-356.88 441,-353.92 441,-350.96 441,-350.96 441,-345.04 441,-345.04 441,-342.08 443.96,-339.12 446.92,-339.12 446.92,-339.12 499.08,-339.12 499.08,-339.12 502.04,-339.12 505,-342.08 505,-345.04 505,-345.04 505,-350.96 505,-350.96 505,-353.92 502.04,-356.88 499.08,-356.88"/>
<text xml:space="preserve" text-anchor="start" x="449" y="-344.32" font-family="Helvetica,sans-Serif" font-size="9.00">Schedule.ts</text>
</a>
</g>
</g>
<!-- src/core/cataloging/Card.ts&#45;&gt;src/core/scheduling/Schedule.ts -->
<g id="edge12" class="edge">
<title>src/core/cataloging/Card.ts&#45;&gt;src/core/scheduling/Schedule.ts</title>
<path fill="none" stroke="#000000" stroke-width="2" stroke-opacity="0.200000" d="M380.63,-317.7C389.84,-320.17 400.23,-323.07 409.62,-326 419.11,-328.96 429.31,-332.43 438.65,-335.73"/>
<polygon fill="#000000" fill-opacity="0.200000" stroke="#000000" stroke-width="2" stroke-opacity="0.200000" points="437.74,-337.63 444.1,-337.67 439.16,-333.68 437.74,-337.63"/>
</g>
<!-- src/app/persistence/SQLiteScheduleTracker.ts -->
<g id="node11" class="node">
<title>src/app/persistence/SQLiteScheduleTracker.ts</title>
<g id="a_node11"><a xlink:href="src/app/persistence/SQLiteScheduleTracker.ts" xlink:title="SQLiteScheduleTracker.ts">
<path fill="#ddfeff" stroke="black" d="M286.83,-169.88C286.83,-169.88 176.17,-169.88 176.17,-169.88 173.21,-169.88 170.25,-166.92 170.25,-163.96 170.25,-163.96 170.25,-158.04 170.25,-158.04 170.25,-155.08 173.21,-152.12 176.17,-152.12 176.17,-152.12 286.83,-152.12 286.83,-152.12 289.79,-152.12 292.75,-155.08 292.75,-158.04 292.75,-158.04 292.75,-163.96 292.75,-163.96 292.75,-166.92 289.79,-169.88 286.83,-169.88"/>
<text xml:space="preserve" text-anchor="start" x="178.25" y="-157.32" font-family="Helvetica,sans-Serif" font-size="9.00">SQLiteScheduleTracker.ts</text>
</a>
</g>
</g>
<!-- src/app/persistence/SQLiteScheduleTracker.ts&#45;&gt;src/core/scheduling/Schedule.ts -->
<g id="edge6" class="edge">
<title>src/app/persistence/SQLiteScheduleTracker.ts&#45;&gt;src/core/scheduling/Schedule.ts</title>
<path fill="none" stroke="#000000" stroke-width="2" stroke-opacity="0.200000" d="M292.97,-167.26C295.85,-169.11 298.48,-171.34 300.75,-174 319.87,-196.41 287.61,-418.49 308.75,-439 340.93,-470.22 375.92,-468.57 409.62,-439 430.18,-420.97 402.22,-400.59 417.62,-378 422.26,-371.2 428.98,-365.78 436.11,-361.53"/>
<polygon fill="#000000" fill-opacity="0.200000" stroke="#000000" stroke-width="2" stroke-opacity="0.200000" points="436.95,-363.46 441.26,-358.79 434.98,-359.76 436.95,-363.46"/>
</g>
<!-- src/core/scheduling/ConsecutiveSuccesses.ts -->
<g id="node15" class="node">
<title>src/core/scheduling/ConsecutiveSuccesses.ts</title>
<g id="a_node15"><a xlink:href="src/core/scheduling/ConsecutiveSuccesses.ts" xlink:title="ConsecutiveSuccesses.ts">
<path fill="#ddfeff" stroke="black" d="M647.71,-319.88C647.71,-319.88 539.29,-319.88 539.29,-319.88 536.33,-319.88 533.38,-316.92 533.38,-313.96 533.38,-313.96 533.38,-308.04 533.38,-308.04 533.38,-305.08 536.33,-302.12 539.29,-302.12 539.29,-302.12 647.71,-302.12 647.71,-302.12 650.67,-302.12 653.62,-305.08 653.62,-308.04 653.62,-308.04 653.62,-313.96 653.62,-313.96 653.62,-316.92 650.67,-319.88 647.71,-319.88"/>
<text xml:space="preserve" text-anchor="start" x="541.38" y="-307.32" font-family="Helvetica,sans-Serif" font-size="9.00">ConsecutiveSuccesses.ts</text>
</a>
</g>
</g>
<!-- src/core/scheduling/Schedule.ts&#45;&gt;src/core/scheduling/ConsecutiveSuccesses.ts -->
<g id="edge13" class="edge">
<title>src/core/scheduling/Schedule.ts&#45;&gt;src/core/scheduling/ConsecutiveSuccesses.ts</title>
<path fill="none" stroke="#000000" stroke-width="2" stroke-opacity="0.200000" d="M497.49,-338.64C508.33,-334.49 521.41,-329.72 533.38,-326 537.06,-324.85 540.89,-323.73 544.75,-322.65"/>
<polygon fill="#000000" fill-opacity="0.200000" stroke="#000000" stroke-width="2" stroke-opacity="0.200000" points="545.06,-324.74 550.3,-321.14 543.96,-320.69 545.06,-324.74"/>
</g>
<!-- src/core/scheduling/DateReviewed.ts -->
<g id="node16" class="node">
<title>src/core/scheduling/DateReviewed.ts</title>
<g id="a_node16"><a xlink:href="src/core/scheduling/DateReviewed.ts" xlink:title="DateReviewed.ts">
<path fill="#ddfeff" stroke="black" d="M630.46,-349.88C630.46,-349.88 556.54,-349.88 556.54,-349.88 553.58,-349.88 550.62,-346.92 550.62,-343.96 550.62,-343.96 550.62,-338.04 550.62,-338.04 550.62,-335.08 553.58,-332.12 556.54,-332.12 556.54,-332.12 630.46,-332.12 630.46,-332.12 633.42,-332.12 636.38,-335.08 636.38,-338.04 636.38,-338.04 636.38,-343.96 636.38,-343.96 636.38,-346.92 633.42,-349.88 630.46,-349.88"/>
<text xml:space="preserve" text-anchor="start" x="558.62" y="-337.32" font-family="Helvetica,sans-Serif" font-size="9.00">DateReviewed.ts</text>
</a>
</g>
</g>
<!-- src/core/scheduling/Schedule.ts&#45;&gt;src/core/scheduling/DateReviewed.ts -->
<g id="edge14" class="edge">
<title>src/core/scheduling/Schedule.ts&#45;&gt;src/core/scheduling/DateReviewed.ts</title>
<path fill="none" stroke="#000000" stroke-width="2" stroke-opacity="0.200000" d="M505.44,-346.14C516.48,-345.49 529.18,-344.74 541.41,-344.02"/>
<polygon fill="#000000" fill-opacity="0.200000" stroke="#000000" stroke-width="2" stroke-opacity="0.200000" points="541.31,-346.13 547.17,-343.68 541.06,-341.94 541.31,-346.13"/>
</g>
<!-- src/core/scheduling/MemoryStrength.ts -->
<g id="node17" class="node">
<title>src/core/scheduling/MemoryStrength.ts</title>
<g id="a_node17"><a xlink:href="src/core/scheduling/MemoryStrength.ts" xlink:title="MemoryStrength.ts">
<path fill="#ddfeff" stroke="black" d="M633.83,-379.88C633.83,-379.88 553.17,-379.88 553.17,-379.88 550.21,-379.88 547.25,-376.92 547.25,-373.96 547.25,-373.96 547.25,-368.04 547.25,-368.04 547.25,-365.08 550.21,-362.12 553.17,-362.12 553.17,-362.12 633.83,-362.12 633.83,-362.12 636.79,-362.12 639.75,-365.08 639.75,-368.04 639.75,-368.04 639.75,-373.96 639.75,-373.96 639.75,-376.92 636.79,-379.88 633.83,-379.88"/>
<text xml:space="preserve" text-anchor="start" x="555.25" y="-367.32" font-family="Helvetica,sans-Serif" font-size="9.00">MemoryStrength.ts</text>
</a>
</g>
</g>
<!-- src/core/scheduling/Schedule.ts&#45;&gt;src/core/scheduling/MemoryStrength.ts -->
<g id="edge15" class="edge">
<title>src/core/scheduling/Schedule.ts&#45;&gt;src/core/scheduling/MemoryStrength.ts</title>
<path fill="none" stroke="#000000" stroke-width="2" stroke-opacity="0.200000" d="M505.44,-354.1C515.61,-356.08 527.18,-358.32 538.5,-360.52"/>
<polygon fill="#000000" fill-opacity="0.200000" stroke="#000000" stroke-width="2" stroke-opacity="0.200000" points="537.81,-362.52 544.1,-361.61 538.61,-358.4 537.81,-362.52"/>
</g>
<!-- src/core/scheduling/ReviewInterval.ts -->
<g id="node18" class="node">
<title>src/core/scheduling/ReviewInterval.ts</title>
<g id="a_node18"><a xlink:href="src/core/scheduling/ReviewInterval.ts" xlink:title="ReviewInterval.ts">
<path fill="#ddfeff" stroke="black" d="M630.46,-409.88C630.46,-409.88 556.54,-409.88 556.54,-409.88 553.58,-409.88 550.62,-406.92 550.62,-403.96 550.62,-403.96 550.62,-398.04 550.62,-398.04 550.62,-395.08 553.58,-392.12 556.54,-392.12 556.54,-392.12 630.46,-392.12 630.46,-392.12 633.42,-392.12 636.38,-395.08 636.38,-398.04 636.38,-398.04 636.38,-403.96 636.38,-403.96 636.38,-406.92 633.42,-409.88 630.46,-409.88"/>
<text xml:space="preserve" text-anchor="start" x="558.62" y="-397.32" font-family="Helvetica,sans-Serif" font-size="9.00">ReviewInterval.ts</text>
</a>
</g>
</g>
<!-- src/core/scheduling/Schedule.ts&#45;&gt;src/core/scheduling/ReviewInterval.ts -->
<g id="edge16" class="edge">
<title>src/core/scheduling/Schedule.ts&#45;&gt;src/core/scheduling/ReviewInterval.ts</title>
<path fill="none" stroke="#000000" stroke-width="2" stroke-opacity="0.200000" d="M488.2,-357.25C504.99,-368.16 530.96,-384.95 533.38,-386 536.13,-387.19 539,-388.31 541.93,-389.34"/>
<polygon fill="#000000" fill-opacity="0.200000" stroke="#000000" stroke-width="2" stroke-opacity="0.200000" points="541.04,-391.26 547.4,-391.12 542.34,-387.27 541.04,-391.26"/>
</g>
<!-- src/bootstrap.ts -->
<g id="node13" class="node">
<title>src/bootstrap.ts</title>
<g id="a_node13"><a xlink:href="src/bootstrap.ts" xlink:title="bootstrap.ts">
<path fill="#ddfeff" stroke="black" d="M140.33,-139.88C140.33,-139.88 88.92,-139.88 88.92,-139.88 85.96,-139.88 83,-136.92 83,-133.96 83,-133.96 83,-128.04 83,-128.04 83,-125.08 85.96,-122.12 88.92,-122.12 88.92,-122.12 140.33,-122.12 140.33,-122.12 143.29,-122.12 146.25,-125.08 146.25,-128.04 146.25,-128.04 146.25,-133.96 146.25,-133.96 146.25,-136.92 143.29,-139.88 140.33,-139.88"/>
<text xml:space="preserve" text-anchor="start" x="91" y="-127.33" font-family="Helvetica,sans-Serif" font-size="9.00">bootstrap.ts</text>
</a>
</g>
</g>
<!-- src/bootstrap.ts&#45;&gt;src/app/Reps.ts -->
<g id="edge11" class="edge">
<title>src/bootstrap.ts&#45;&gt;src/app/Reps.ts</title>
<path fill="none" stroke="#000000" stroke-width="2" stroke-opacity="0.200000" d="M118.09,-140.19C122.6,-155.1 133.67,-184.37 154.25,-199 166.13,-207.44 181.6,-211.25 195.5,-212.83"/>
<polygon fill="#000000" fill-opacity="0.200000" stroke="#000000" stroke-width="2" stroke-opacity="0.200000" points="195.18,-214.91 201.34,-213.32 195.53,-210.72 195.18,-214.91"/>
</g>
<!-- src/bootstrap.ts&#45;&gt;src/app/cli/ConsoleUserInterface.ts -->
<g id="edge7" class="edge">
<title>src/bootstrap.ts&#45;&gt;src/app/cli/ConsoleUserInterface.ts</title>
<path fill="none" stroke="#000000" stroke-width="2" stroke-opacity="0.200000" d="M120.94,-121.92C127.62,-111.1 139.96,-92.99 154.25,-81 167.37,-70 184.01,-60.83 198.39,-54.06"/>
<polygon fill="#000000" fill-opacity="0.200000" stroke="#000000" stroke-width="2" stroke-opacity="0.200000" points="199.21,-56 203.8,-51.61 197.47,-52.18 199.21,-56"/>
</g>
<!-- src/bootstrap.ts&#45;&gt;src/app/persistence/Config.ts -->
<g id="edge8" class="edge">
<title>src/bootstrap.ts&#45;&gt;src/app/persistence/Config.ts</title>
<path fill="none" stroke="#000000" stroke-width="2" stroke-opacity="0.200000" d="M137.45,-121.75C142.88,-119.67 148.72,-117.6 154.25,-116 167.52,-112.15 182.36,-108.98 195.41,-106.56"/>
<polygon fill="#000000" fill-opacity="0.200000" stroke="#000000" stroke-width="2" stroke-opacity="0.200000" points="195.59,-108.67 201.13,-105.54 194.86,-104.53 195.59,-108.67"/>
</g>
<!-- src/bootstrap.ts&#45;&gt;src/app/persistence/FileSystemCatalog.ts -->
<g id="edge9" class="edge">
<title>src/bootstrap.ts&#45;&gt;src/app/persistence/FileSystemCatalog.ts</title>
<path fill="none" stroke="#000000" stroke-width="2" stroke-opacity="0.200000" d="M146.71,-131C154.31,-131 162.69,-131 171.12,-131"/>
<polygon fill="#000000" fill-opacity="0.200000" stroke="#000000" stroke-width="2" stroke-opacity="0.200000" points="170.87,-133.1 176.87,-131 170.87,-128.9 170.87,-133.1"/>
</g>
<!-- src/bootstrap.ts&#45;&gt;src/app/persistence/SQLiteScheduleTracker.ts -->
<g id="edge10" class="edge">
<title>src/bootstrap.ts&#45;&gt;src/app/persistence/SQLiteScheduleTracker.ts</title>
<path fill="none" stroke="#000000" stroke-width="2" stroke-opacity="0.200000" d="M137.45,-140.25C142.88,-142.33 148.72,-144.4 154.25,-146 158.79,-147.32 163.51,-148.55 168.28,-149.71"/>
<polygon fill="#000000" fill-opacity="0.200000" stroke="#000000" stroke-width="2" stroke-opacity="0.200000" points="167.62,-151.71 173.94,-151.01 168.56,-147.62 167.62,-151.71"/>
</g>
<!-- src/core/cataloging/Catalog.ts -->
<g id="node14" class="node">
<title>src/core/cataloging/Catalog.ts</title>
<g id="a_node14"><a xlink:href="src/core/cataloging/Catalog.ts" xlink:title="Catalog.ts">
<path fill="#ccffcc" stroke="black" d="M376.08,-409.88C376.08,-409.88 330.67,-409.88 330.67,-409.88 327.71,-409.88 324.75,-406.92 324.75,-403.96 324.75,-403.96 324.75,-398.04 324.75,-398.04 324.75,-395.08 327.71,-392.12 330.67,-392.12 330.67,-392.12 376.08,-392.12 376.08,-392.12 379.04,-392.12 382,-395.08 382,-398.04 382,-398.04 382,-403.96 382,-403.96 382,-406.92 379.04,-409.88 376.08,-409.88"/>
<text xml:space="preserve" text-anchor="start" x="332.75" y="-397.32" font-family="Helvetica,sans-Serif" font-size="9.00">Catalog.ts</text>
</a>
</g>
</g>
<!-- src/core/scheduling/ScheduleTracker.ts -->
<g id="node19" class="node">
<title>src/core/scheduling/ScheduleTracker.ts</title>
<g id="a_node19"><a xlink:href="src/core/scheduling/ScheduleTracker.ts" xlink:title="ScheduleTracker.ts">
<path fill="#ccffcc" stroke="black" d="M514.46,-401.88C514.46,-401.88 431.54,-401.88 431.54,-401.88 428.58,-401.88 425.62,-398.92 425.62,-395.96 425.62,-395.96 425.62,-390.04 425.62,-390.04 425.62,-387.08 428.58,-384.12 431.54,-384.12 431.54,-384.12 514.46,-384.12 514.46,-384.12 517.42,-384.12 520.38,-387.08 520.38,-390.04 520.38,-390.04 520.38,-395.96 520.38,-395.96 520.38,-398.92 517.42,-401.88 514.46,-401.88"/>
<text xml:space="preserve" text-anchor="start" x="433.62" y="-389.32" font-family="Helvetica,sans-Serif" font-size="9.00">ScheduleTracker.ts</text>
</a>
</g>
</g>
<!-- src/main.ts -->
<g id="node20" class="node">
<title>src/main.ts</title>
<g id="a_node20"><a xlink:href="src/main.ts" xlink:title="main.ts">
<path fill="#ddfeff" stroke="black" d="M64.08,-139.88C64.08,-139.88 21.92,-139.88 21.92,-139.88 18.96,-139.88 16,-136.92 16,-133.96 16,-133.96 16,-128.04 16,-128.04 16,-125.08 18.96,-122.12 21.92,-122.12 21.92,-122.12 64.08,-122.12 64.08,-122.12 67.04,-122.12 70,-125.08 70,-128.04 70,-128.04 70,-133.96 70,-133.96 70,-136.92 67.04,-139.88 64.08,-139.88"/>
<text xml:space="preserve" text-anchor="start" x="28.38" y="-127.33" font-family="Helvetica,sans-Serif" font-size="9.00">main.ts</text>
</a>
</g>
</g>
<!-- src/main.ts&#45;&gt;src/bootstrap.ts -->
<g id="edge17" class="edge">
<title>src/main.ts&#45;&gt;src/bootstrap.ts</title>
<path fill="none" stroke="#000000" stroke-width="2" stroke-opacity="0.200000" d="M70.32,-131C71.45,-131 72.59,-131 73.73,-131"/>
<polygon fill="#000000" fill-opacity="0.200000" stroke="#000000" stroke-width="2" stroke-opacity="0.200000" points="73.56,-133.1 79.56,-131 73.56,-128.9 73.56,-133.1"/>
</g>
</g>
</svg>
